<svg width="638" height="263" viewBox="0 0 638 263" fill="none" xmlns="http://www.w3.org/2000/svg">
<path d="M263.69 223.541C260.864 223.603 258.055 223.088 255.434 222.025C252.813 220.962 250.436 219.375 248.446 217.36C247.495 216.374 246.974 215.049 246.997 213.677C247.019 212.304 247.584 210.997 248.567 210.043C249.55 209.089 250.87 208.566 252.238 208.589C253.605 208.612 254.907 209.178 255.858 210.165C258.613 213.023 262.266 213.373 264.893 213.166C270.959 212.687 277.496 208.879 281.162 203.634C286.232 196.418 288.24 187.5 290.361 178.054C291.073 174.925 291.785 171.681 292.647 168.501C295.438 158.162 302.558 140.121 319.083 135.426C329.841 132.375 340.593 135.755 350.169 145.201C359.745 154.647 365.484 167.287 368.104 174.039C375.566 193.238 385.42 212.83 401.96 212.83H402.237C412.091 212.709 425.826 205.27 435.316 170.531L454.426 100.558C456.911 91.462 461.005 78.0862 467.855 67.0255C475.338 54.943 484.843 47.7335 496.1 45.59C516.327 41.7173 532.917 50.5273 545.405 71.7842C555.508 88.9826 561.475 111.647 566.267 129.853C568.232 137.305 570.083 144.336 571.892 149.688C578.335 168.751 587.847 191.766 604.323 200.533C613.109 205.206 622.493 206.342 631.464 203.82C632.115 203.636 632.794 203.583 633.465 203.664C634.136 203.744 634.784 203.956 635.373 204.288C635.963 204.619 636.481 205.064 636.898 205.597C637.316 206.13 637.625 206.74 637.808 207.393C637.991 208.045 638.044 208.727 637.964 209.401C637.884 210.074 637.673 210.724 637.342 211.316C637.011 211.907 636.568 212.427 636.037 212.846C635.506 213.265 634.898 213.575 634.248 213.759C622.856 216.967 610.51 215.517 599.503 209.658C579.823 199.19 569.2 173.882 562.144 153.003C560.222 147.323 558.328 140.142 556.32 132.49C551.692 114.898 545.925 92.9982 536.541 77.0288C526.21 59.4445 513.971 52.678 498.029 55.7361C489.592 57.3509 482.579 62.8384 476.591 72.5059C470.439 82.4019 466.651 94.8202 464.337 103.273L445.227 173.296C441.575 186.643 436.918 197.504 431.365 205.563C423.419 217.117 413.658 223.048 402.351 223.19C391.55 223.341 381.924 218.01 373.793 207.393C366.972 198.447 362.052 186.872 358.521 177.797C351.607 160.006 337.873 140.842 321.881 145.365C316.897 146.794 307.713 152.025 302.586 171.181C301.789 174.16 301.084 177.297 300.4 180.334C298.143 190.337 295.815 200.69 289.578 209.579C284.16 217.296 274.79 222.74 265.705 223.462C265.028 223.512 264.352 223.541 263.69 223.541Z" fill="white"/>
<g clip-path="url(#clip0)">
<path d="M260.333 184.884C252.643 214.451 230.991 241.838 178.541 256.007C159.588 261.129 137.533 263.644 117.866 262.09C88.9244 259.801 58.591 246.735 34.486 231.923C17.8044 221.671 11.165 207.839 8.81417 192.203C7.35983 182.533 7.54388 172.174 8.00832 161.551C8.70641 145.565 6.16488 129.468 2.40264 113.913C-3.38805 89.9636 1.38222 64.8428 15.6682 44.2418C29.9542 23.6409 52.5285 9.30793 78.2758 4.49151C121.653 -3.62013 165.661 1.73326 165.661 1.73326C223.621 7.75428 252.96 65.3006 260.115 112.142C263.387 133.55 266.808 159.991 260.333 184.884Z" fill="#F4F7FA"/>
<path d="M74.3158 210.285C89.9274 211.003 107.09 200.533 113.347 186.463C124.724 160.875 96.4668 148.378 92.8485 125.709C89.9074 107.27 99.9381 89.0992 96.3018 70.6728C93.1032 54.459 79.6516 39.9516 63.1331 37.0426C48.8891 34.5333 32.8674 41.8381 25.4793 54.5916C19.9747 64.0957 17.087 79.3242 18.9076 90.237C20.3943 99.1545 23.3622 107.659 28.6874 115.026C33.019 121.019 39.2894 125.953 41.8481 133.077C46.6975 146.574 39.4296 162.012 39.8692 175.629C40.1763 185.145 45.2699 195.944 52.6294 201.979C59.0323 207.233 66.5863 209.931 74.3158 210.285Z" fill="#D8DEE8"/>
<g style="mix-blend-mode:soft-light" opacity="0.8">
<g style="mix-blend-mode:soft-light" opacity="0.8">
<path d="M75.9761 206.145C75.8704 206.113 75.7783 206.047 75.7145 205.957C75.6507 205.867 75.6189 205.758 75.6242 205.648C75.6328 205.457 76.4987 186.535 74.5036 161.013C72.6621 137.472 67.9414 103.344 55.9023 74.4458C55.8517 74.3249 55.8512 74.1888 55.9009 74.0676C55.9506 73.9463 56.0465 73.8498 56.1674 73.7992C56.2883 73.7486 56.4243 73.7481 56.5456 73.7978C56.6669 73.8475 56.7634 73.9434 56.814 74.0643C68.9046 103.088 73.6434 137.332 75.4888 160.951C77.4915 186.531 76.6198 205.506 76.6103 205.695C76.6072 205.76 76.5914 205.823 76.5638 205.882C76.5362 205.941 76.4972 205.993 76.4493 206.037C76.4013 206.081 76.3451 206.115 76.2841 206.137C76.223 206.159 76.1582 206.168 76.0934 206.165C76.0537 206.163 76.0143 206.156 75.9761 206.145Z" fill="white"/>
</g>
</g>
<path d="M66.449 143.983C44.9351 109.251 16.9468 113.572 9.88869 125.621C2.89923 137.553 -16.364 204.821 73.0274 211.458C73.7986 211.516 74.5659 211.305 75.1988 210.86C75.8317 210.416 76.2911 209.766 76.4988 209.021C78.8458 200.579 84.3647 172.907 66.449 143.983Z" fill="#BFC8D6"/>
<g style="mix-blend-mode:soft-light" opacity="0.8">
<g style="mix-blend-mode:soft-light" opacity="0.8">
<path d="M73.7312 208.805C73.647 208.78 73.5709 208.734 73.5109 208.669C73.4509 208.605 73.4091 208.526 73.3898 208.441C73.3698 208.355 71.3661 199.679 64.7019 187.103C58.5517 175.497 47.059 158.103 27.2445 141.132C27.193 141.091 27.1503 141.039 27.1189 140.981C27.0876 140.923 27.0683 140.859 27.0621 140.793C27.056 140.727 27.0631 140.661 27.0831 140.597C27.1031 140.534 27.1356 140.476 27.1786 140.426C27.2215 140.375 27.2742 140.334 27.3334 140.305C27.3925 140.275 27.457 140.258 27.5231 140.254C27.5891 140.25 27.6552 140.259 27.7176 140.281C27.7801 140.303 27.8374 140.337 27.8864 140.381C47.8362 157.463 59.4033 174.984 65.5945 186.675C72.3103 199.36 74.333 208.135 74.353 208.22C74.3818 208.347 74.3587 208.481 74.2887 208.592C74.2188 208.703 74.1078 208.781 73.9801 208.81C73.8982 208.83 73.8124 208.828 73.7312 208.805Z" fill="white"/>
</g>
<g style="mix-blend-mode:soft-light" opacity="0.8">
<path d="M56.9009 173.929C56.8271 173.908 56.7595 173.869 56.7032 173.817C56.647 173.765 56.6038 173.7 56.5772 173.628C56.5505 173.556 56.541 173.479 56.5495 173.402C56.558 173.326 56.5843 173.253 56.6262 173.188C56.714 173.051 65.3399 159.323 55.1108 145.642C55.069 145.591 55.0379 145.531 55.0196 145.467C55.0013 145.403 54.9961 145.336 55.0043 145.27C55.0125 145.204 55.0339 145.14 55.0673 145.083C55.1007 145.025 55.1454 144.975 55.1987 144.935C55.2519 144.896 55.3127 144.867 55.3773 144.851C55.4419 144.835 55.509 144.833 55.5746 144.843C55.6403 144.854 55.703 144.878 55.7592 144.914C55.8153 144.949 55.8637 144.996 55.9014 145.051C61.4652 152.49 61.5939 159.891 60.7222 164.787C59.7781 170.085 57.5503 173.578 57.4559 173.724C57.3978 173.814 57.3124 173.882 57.2124 173.919C57.1124 173.956 57.0031 173.96 56.9009 173.929Z" fill="white"/>
</g>
<g style="mix-blend-mode:soft-light" opacity="0.8">
<path d="M32.6719 163.366C29.519 162.428 26.0086 160.614 22.4123 157.346C22.3643 157.302 22.3255 157.249 22.2979 157.19C22.2704 157.131 22.2547 157.068 22.2518 157.003C22.2489 156.938 22.2588 156.873 22.2809 156.812C22.303 156.751 22.337 156.695 22.3808 156.647C22.4247 156.599 22.4775 156.56 22.5364 156.532C22.5952 156.505 22.6589 156.489 22.7238 156.486C22.7887 156.483 22.8536 156.493 22.9147 156.515C22.9758 156.537 23.0319 156.571 23.0799 156.615C35.8591 168.228 47.5654 161.034 47.6846 160.959C47.7952 160.889 47.9292 160.866 48.0571 160.894C48.1204 160.909 48.1803 160.935 48.2334 160.972C48.2865 161.01 48.3317 161.057 48.3664 161.112C48.4012 161.167 48.4248 161.228 48.436 161.292C48.4471 161.356 48.4455 161.421 48.4314 161.485C48.4172 161.548 48.3907 161.608 48.3534 161.661C48.3161 161.714 48.2687 161.759 48.2139 161.794C48.087 161.874 45.0582 163.764 40.3432 164.171C37.7582 164.387 35.1557 164.114 32.6719 163.366Z" fill="white"/>
</g>
<g style="mix-blend-mode:soft-light" opacity="0.8">
<path d="M50.9041 192.139C47.7513 191.203 44.2408 189.389 40.6445 186.119C40.5477 186.031 40.4899 185.907 40.484 185.776C40.4781 185.645 40.5245 185.517 40.6131 185.42C40.7016 185.323 40.825 185.266 40.9561 185.26C41.0872 185.254 41.2152 185.3 41.3121 185.389C54.0913 197.002 65.7976 189.807 65.9168 189.734C65.9715 189.696 66.0332 189.67 66.0983 189.657C66.1633 189.644 66.2304 189.644 66.2954 189.657C66.3604 189.67 66.4221 189.697 66.4768 189.734C66.5314 189.772 66.5779 189.82 66.6135 189.876C66.6491 189.932 66.673 189.995 66.6838 190.061C66.6947 190.126 66.6922 190.193 66.6766 190.258C66.661 190.322 66.6325 190.383 66.5929 190.436C66.5533 190.489 66.5034 190.534 66.4461 190.568C66.3192 190.649 63.2904 192.538 58.5754 192.945C55.9904 193.162 53.3878 192.888 50.9041 192.139Z" fill="white"/>
</g>
</g>
<path d="M150.575 67.4338H150.405C149.543 67.4338 148.844 68.1329 148.844 68.9951V75.0896C148.844 75.9519 149.543 76.6509 150.405 76.6509H150.575C151.437 76.6509 152.136 75.9519 152.136 75.0896V68.9951C152.136 68.1329 151.437 67.4338 150.575 67.4338Z" fill="url(#paint0_linear)"/>
<path d="M147.554 218.776C153.364 214.738 165.69 204.912 171.175 188.09C179.869 161.424 167.295 129.68 142.684 114.785C113.514 97.1297 81.9709 111.938 78.1505 113.81C56.3286 124.505 47.2068 143.43 42.1094 153.994C33.1649 172.545 20.8473 212.321 38.9441 227.787C49.5356 236.839 66.2754 233.913 85.9477 230.475C105.853 226.997 110.958 220.546 112.243 218.776C117.132 212.044 114.842 206.837 116.851 195.144C120.104 176.217 132.039 155.327 141.107 155.989C148.495 156.53 153.826 171.362 154.795 181.54C156.447 198.899 146.269 211.679 143.558 214.882L147.554 218.776Z" fill="url(#paint1_linear)"/>
<path style="mix-blend-mode:multiply" opacity="0.2" d="M89.5955 191.255C81.6667 178.71 106.689 156.539 100.067 146.687C95.3938 139.738 77.1463 142.173 64.7571 148.636C42.404 160.297 36.4579 186.458 34.3169 195.883C32.6789 203.113 31.9523 210.521 32.154 217.932C33.6388 221.777 35.8447 225.138 38.9441 227.787C49.5356 236.839 66.2754 233.913 85.9477 230.475C105.853 226.997 110.958 220.546 112.243 218.776C112.371 218.599 112.491 218.426 112.609 218.251C112.561 211.7 111.057 205.581 106.887 201.241C100.685 194.789 93.373 197.235 89.5955 191.255Z" fill="url(#paint2_linear)"/>
<path d="M89.1607 220.221C89.1607 220.221 46.9798 223.559 55.5037 192.307C64.0276 161.056 92.7141 137.263 92.7141 137.263L78.1506 113.81C78.1506 113.81 9.9917 145.226 1.57746 195.883C-6.83678 246.539 84.461 228.945 84.461 228.945L89.1607 220.221Z" fill="url(#paint3_linear)"/>
<path d="M110.855 227.874C110.855 227.874 108.291 219.295 104.301 217.331C100.311 215.366 89.1607 220.221 89.1607 220.221C89.1607 220.221 84.1587 227.205 84.461 228.942C84.7633 230.678 93.7545 231.082 96.9083 227.871C100.062 224.659 104.379 224.216 106.242 226.973C108.104 229.73 110.855 227.874 110.855 227.874Z" fill="url(#paint4_linear)"/>
<path d="M110.124 92.3324L105.751 101.719C105.303 102.68 104.657 103.534 103.855 104.227C103.053 104.919 102.113 105.433 101.098 105.735L89.1606 109.288C89.1606 109.288 115.252 120.548 115.737 120.061C116.221 119.573 127.613 108.334 127.613 108.334L123.709 106.915C122.556 106.496 121.55 105.75 120.814 104.767C120.079 103.784 119.646 102.608 119.569 101.383L119.121 94.1674L110.124 92.3324Z" fill="url(#paint5_linear)"/>
<path d="M129.617 85.1831L130.375 85.2641C133.498 85.598 135.664 89.2842 135.213 93.4988L135.189 93.7354C134.738 97.949 131.842 101.094 128.72 100.761L127.957 100.68C126.382 100.512 125.477 96.9066 125.933 92.6271C126.389 88.3476 128.043 85.0152 129.617 85.1831Z" fill="url(#paint6_linear)"/>
<path d="M124.158 92.4364C123.658 97.1202 125.077 101.116 127.401 101.362C129.725 101.608 132.081 98.0234 132.58 93.3377C133.08 88.6519 131.54 84.6481 129.213 84.3991C126.886 84.1502 124.659 87.7525 124.158 92.4364Z" fill="url(#paint7_linear)"/>
<path d="M129.342 84.408L128.453 84.3131L126.641 101.275L127.529 101.37L129.342 84.408Z" fill="url(#paint8_linear)"/>
<path d="M123.33 92.3486C122.83 97.0325 124.31 101.028 126.636 101.28C128.962 101.531 131.255 97.9328 131.755 93.249C132.256 88.5651 130.776 84.5698 128.449 84.3171C126.122 84.0644 123.83 87.6648 123.33 92.3486Z" fill="url(#paint9_linear)"/>
<path style="mix-blend-mode:multiply" opacity="0.6" d="M125.252 92.5537C124.98 95.1002 125.785 97.2747 127.05 97.4102C128.314 97.5456 129.561 95.5904 129.833 93.0429C130.105 90.4955 129.301 88.3219 128.035 88.1874C126.77 88.0529 125.524 90.0071 125.252 92.5537Z" fill="url(#paint10_linear)"/>
<path d="M127.926 91.7878C130.863 89.8803 132.552 85.3233 131.185 81.5741C130.009 78.3505 126.946 76.8645 125.114 75.9756C119.813 73.4005 112.123 73.1859 108.054 77.2584C105.647 79.6695 106.68 86.8274 106.794 88.0892C106.924 89.5198 107.771 90.2933 108.372 91.5532C109.206 93.3014 110.501 96.0701 112.589 100.675C113.317 99.5422 114.147 98.4779 115.068 97.495C115.481 97.0553 117.118 95.3481 119.125 94.1636C123.146 91.7859 125.146 93.5923 127.926 91.7878Z" fill="url(#paint11_linear)"/>
<path d="M108.932 96.1178C108.932 96.1178 110.585 103.176 117.926 105.321C124.519 107.245 130.253 93.4874 127.134 89.0124C126.094 87.5217 123.476 86.1226 121.03 85.9356C119.587 85.824 118.957 86.1998 116.602 85.9728C114.431 85.7649 113.94 85.3472 113.168 85.6266C112.205 85.9766 111.14 87.2957 111.009 91.8565C110.193 90.2065 108.88 89.2146 107.671 89.3214C107.255 89.3806 106.864 89.5561 106.542 89.8279C105.107 91.1126 105.916 93.6991 108.932 96.1178Z" fill="url(#paint12_linear)"/>
<path d="M113.161 84.6843C113.394 85.02 112.065 85.8097 111.455 87.3824C110.269 90.4344 112.227 95.3052 115.404 96.8016C117.284 97.6867 118.206 96.7377 121.535 97.5646C123.164 97.9743 124.72 98.6335 126.148 99.5189C126.006 103.29 123.899 106.341 121.025 107.07C117.935 107.854 115.073 105.666 113.872 104.752C113.073 104.141 110.511 102.19 109.88 99.084C109.222 95.8479 111.3 94.7921 110.119 92.3343C109.524 91.0944 108.471 90.2761 107.913 88.0958C107.793 87.6287 107.71 87.1529 107.664 86.6728C109.903 85.5512 112.819 84.1969 113.161 84.6843Z" fill="url(#paint13_linear)"/>
<path d="M123.373 99.9357C123.373 99.9357 121.738 100.143 119.375 99.1441C119.259 99.0954 119.119 99.0821 119.089 99.1364C118.959 99.3386 120.165 100.89 121.721 101.014C122.826 101.101 123.93 100.454 123.873 100.167C123.845 100.048 123.612 99.9776 123.373 99.9357Z" fill="url(#paint14_linear)"/>
<path d="M110.159 85.722L109.195 85.6104L109.536 82.6318C110.123 77.4949 114.14 73.6666 118.681 73.9212L123.544 74.1921C126.086 74.3333 128.375 75.6132 129.991 77.7973C131.608 79.9814 132.328 82.7673 132.021 85.6438L131.766 88.0281L130.801 87.9251L131.055 85.5408C131.331 82.9656 130.685 80.4725 129.244 78.5183C127.802 76.5641 125.747 75.4186 123.474 75.2927L118.61 75.0219C114.585 74.7987 111.024 78.1902 110.504 82.7472L110.159 85.722Z" fill="url(#paint15_linear)"/>
<path d="M129.795 80.3266C129.588 80.3018 129.39 80.2304 129.215 80.1179C129.04 80.0054 128.892 79.8547 128.784 79.6771C127.521 77.7105 125.556 76.5135 123.391 76.3924L118.527 76.1225C116.829 76.0271 115.167 76.669 113.846 77.927C113.222 78.5221 112.303 78.4429 111.796 77.7505C111.551 77.3995 111.438 76.9733 111.477 76.5471C111.515 76.1209 111.703 75.722 112.007 75.4205C113.914 73.6084 116.304 72.6852 118.748 72.8216L123.612 73.0915C126.643 73.2593 129.391 74.9341 131.156 77.6857C131.624 78.4134 131.472 79.4501 130.817 79.9995C130.678 80.1206 130.515 80.2122 130.34 80.2684C130.164 80.3247 129.978 80.3445 129.795 80.3266Z" fill="url(#paint16_linear)"/>
<path style="mix-blend-mode:multiply" opacity="0.3" d="M128.117 76.7634C124.684 75.2069 124.779 74.1234 122.934 73.843C119.475 73.3175 117.674 76.8826 114.342 76.0309C113.64 75.8437 112.986 75.5095 112.423 75.0505C112.284 75.17 112.147 75.2934 112.012 75.4205C111.709 75.722 111.521 76.1209 111.482 76.5471C111.444 76.9733 111.557 77.3995 111.802 77.7506C112.309 78.443 113.232 78.5221 113.852 77.927C115.173 76.669 116.835 76.0281 118.533 76.1225L123.396 76.3924C125.561 76.5135 127.527 77.7105 128.789 79.6771C128.898 79.8547 129.045 80.0055 129.22 80.118C129.395 80.2305 129.594 80.3018 129.8 80.3266C129.984 80.3445 130.169 80.3247 130.345 80.2684C130.521 80.2122 130.683 80.1207 130.823 79.9995C131.416 79.5016 131.597 78.6032 131.278 77.9012C130.195 77.6083 129.138 77.2277 128.117 76.7634Z" fill="url(#paint17_linear)"/>
<path d="M113.599 91.1669C113.093 95.9023 110.776 99.538 108.424 99.2862C106.072 99.0344 104.575 94.9943 105.081 90.2561C105.588 85.5179 107.904 81.886 110.256 82.1368C112.608 82.3877 114.105 86.4316 113.599 91.1669Z" fill="url(#paint18_linear)"/>
<path d="M112.762 91.0785C113.268 86.3432 111.771 82.3007 109.419 82.0494C107.067 81.798 104.75 85.4329 104.244 90.1682C103.738 94.9035 105.235 98.946 107.587 99.1974C109.939 99.4488 112.256 95.8138 112.762 91.0785Z" fill="url(#paint19_linear)"/>
<path d="M108.363 82.6843L107.6 82.6022C104.444 82.2646 101.515 85.4454 101.061 89.7058L101.035 89.9442C100.58 94.2056 102.77 97.9328 105.926 98.2695L106.689 98.3515C108.282 98.5222 109.947 95.1526 110.408 90.8255C110.87 86.4983 109.958 82.854 108.363 82.6843Z" fill="url(#paint20_linear)"/>
<path d="M106.688 90.3066C106.355 93.4292 104.824 95.8269 103.268 95.66C101.713 95.4931 100.723 92.8274 101.057 89.7048C101.39 86.5822 102.922 84.1855 104.477 84.3514C106.031 84.5174 107.022 87.184 106.688 90.3066Z" fill="url(#paint21_linear)"/>
<path d="M178.77 224.792L97.5377 237.447L121.473 163.751L198.503 154.403L178.77 224.792Z" fill="white"/>
<path d="M72.6908 237.895L79.4103 236.897L78.1152 239.885L72.6908 237.895Z" fill="url(#paint22_linear)"/>
<path d="M216.191 158.296C216.016 158.155 215.893 157.944 215.631 157.943C215.42 157.942 215.209 157.959 215.001 157.994L104.529 169.265C102.392 169.481 100.071 171.372 99.3869 173.453L77.6651 239.424V239.433L72.6936 237.895C72.4416 237.818 72.169 237.842 71.935 237.964C71.7011 238.086 71.5248 238.296 71.4443 238.547L71.2631 239.11C71.1831 239.359 71.2038 239.629 71.3207 239.864C71.4376 240.098 71.6415 240.277 71.8887 240.363L77.0309 242.146L80.4641 243.34L80.7436 243.482L80.7111 243.251L182.487 225.581C184.062 225.307 186.006 223.826 186.757 222.269L216.267 161.134C216.536 160.577 216.68 160.063 216.689 159.619C217.213 160.007 217.962 160.311 219.013 160.433C218.852 159.643 217.158 158.735 216.191 158.296ZM183.447 171.993C184.608 169.38 187.548 167.025 189.991 166.761C192.435 166.497 193.425 168.399 192.242 170.994C191.067 173.569 188.175 175.872 185.764 176.16C183.339 176.448 182.291 174.588 183.447 171.993ZM183.117 182.044C185.514 181.746 186.529 183.535 185.396 186.021C184.268 188.489 181.443 190.735 179.059 191.056C176.676 191.376 175.611 189.636 176.714 187.145C177.828 184.639 180.702 182.346 183.117 182.044ZM168.638 173.678C169.765 171.025 172.739 168.633 175.271 168.359C177.785 168.086 178.875 170.011 177.724 172.644C176.588 175.253 173.658 177.594 171.167 177.889C168.676 178.185 167.519 176.311 168.638 173.678ZM168.595 183.86C171.074 183.553 172.171 185.355 171.074 187.88C169.984 190.381 167.12 192.664 164.662 192.994C162.203 193.324 161.044 191.563 162.115 189.041C163.193 186.503 166.104 184.169 168.595 183.861V183.86ZM153.327 175.418C154.418 172.729 157.437 170.298 160.051 170.015C162.651 169.729 163.84 171.681 162.721 174.347C161.617 176.999 158.65 179.377 156.074 179.688C153.488 179.991 152.247 178.09 153.327 175.419V175.418ZM153.592 185.738C156.154 185.416 157.347 187.243 156.281 189.8C155.224 192.334 152.327 194.651 149.789 194.995C147.236 195.339 145.992 193.556 147.024 190.999C148.067 188.423 151.016 186.059 153.592 185.739V185.738ZM137.494 177.221C138.543 174.489 141.594 172.021 144.302 171.728C147.009 171.435 148.284 173.409 147.213 176.115C146.147 178.8 143.141 181.216 140.476 181.533C137.81 181.849 136.451 179.93 137.494 177.222V177.221ZM138.084 187.677C140.73 187.347 142.028 189.191 140.999 191.778C139.981 194.353 137.042 196.704 134.419 197.058C131.796 197.412 130.437 195.614 131.427 193.019C132.432 190.414 135.421 188.008 138.084 187.678V187.677ZM121.099 179.084C122.104 176.319 125.2 173.804 128.007 173.498C130.79 173.196 132.196 175.192 131.162 177.943C130.139 180.665 127.096 183.124 124.336 183.454C121.576 183.784 120.103 181.836 121.099 179.085V179.084ZM115.299 195.119C116.253 192.471 119.285 190.028 122.04 189.682C124.777 189.338 126.183 191.208 125.197 193.835C124.22 196.44 121.243 198.837 118.531 199.2C115.805 199.568 114.345 197.751 115.299 195.119ZM104.124 181.021C105.077 178.205 108.225 175.653 111.126 175.336C114.012 175.025 115.532 177.044 114.545 179.833C113.569 182.599 110.484 185.104 107.629 185.438C104.756 185.781 103.181 183.808 104.124 181.021ZM98.6096 197.284C99.5204 194.599 102.586 192.113 105.441 191.759C108.276 191.405 109.796 193.292 108.857 195.955C107.922 198.598 104.908 201.032 102.101 201.41C99.2772 201.79 97.7027 199.954 98.6096 197.284ZM98.1986 226.128C97.3403 228.549 94.4621 230.861 91.7499 231.304C89.0176 231.752 87.4584 230.148 88.2909 227.708C89.1216 225.25 92.0512 222.891 94.8112 222.463C97.552 222.041 99.0617 223.688 98.1977 226.128H98.1986ZM103.412 211.374C102.516 213.902 99.5719 216.271 96.812 216.686C94.033 217.102 92.4709 215.384 93.3349 212.836C94.2075 210.261 97.2039 207.848 100.011 207.453C102.817 207.057 104.308 208.825 103.411 211.374H103.412ZM114.028 223.608C113.131 225.993 110.286 228.27 107.659 228.699C105.016 229.133 103.558 227.543 104.437 225.132C105.315 222.721 108.205 220.39 110.876 219.974C113.527 219.564 114.933 221.197 114.027 223.608H114.028ZM119.495 209.043C118.56 211.539 115.655 213.87 112.984 214.27C110.3 214.672 108.842 212.968 109.752 210.455C110.673 207.921 113.631 205.543 116.338 205.161C119.046 204.778 120.434 206.528 119.495 209.043ZM129.356 221.164C128.417 223.528 125.61 225.765 123.062 226.18C120.514 226.594 119.152 225.024 120.071 222.645C120.99 220.243 123.845 217.965 126.425 217.563C129.006 217.162 130.294 218.79 129.351 221.164H129.356ZM128.625 211.93C126.025 212.317 124.675 210.637 125.629 208.151C126.583 205.664 129.511 203.31 132.13 202.941C134.749 202.573 136.04 204.305 135.055 206.787C134.074 209.252 131.205 211.541 128.62 211.93H128.625ZM144.194 218.797C143.221 221.127 140.447 223.335 137.98 223.736C135.513 224.137 134.248 222.58 135.201 220.231C136.155 217.862 138.98 215.611 141.481 215.224C143.962 214.846 145.171 216.45 144.189 218.8L144.194 218.797ZM143.764 209.666C141.25 210.039 140 208.373 140.99 205.92C141.99 203.452 144.873 201.151 147.412 200.791C149.935 200.437 151.139 202.15 150.115 204.599C149.096 207.032 146.26 209.292 143.759 209.67L143.764 209.666ZM158.575 216.503C157.569 218.81 154.829 220.985 152.441 221.373C150.034 221.764 148.874 220.217 149.86 217.895C150.856 215.555 153.639 213.342 156.059 212.964C158.478 212.587 159.584 214.185 158.57 216.507L158.575 216.503ZM158.428 207.472C155.988 207.835 154.833 206.184 155.861 203.764C156.889 201.343 159.744 199.059 162.198 198.714C164.651 198.37 165.755 200.064 164.698 202.485C163.65 204.89 160.843 207.112 158.423 207.476L158.428 207.472ZM172.519 214.284C171.482 216.564 168.773 218.706 166.457 219.083C164.126 219.464 163.051 217.927 164.072 215.634C165.097 213.322 167.847 211.142 170.197 210.778C172.525 210.415 173.559 211.992 172.519 214.284ZM172.633 205.353C170.274 205.706 169.199 204.069 170.265 201.682C171.331 199.275 174.142 197.039 176.526 196.704C178.893 196.374 179.918 198.054 178.828 200.441C177.743 202.809 174.979 205.003 172.629 205.353H172.633ZM186.041 212.133C184.975 214.384 182.3 216.492 180.054 216.86C177.789 217.229 176.794 215.705 177.846 213.436C178.898 211.167 181.621 209.004 183.895 208.651C186.168 208.297 187.11 209.864 186.037 212.133H186.041ZM192.526 198.454C191.418 200.795 188.687 202.956 186.407 203.295C184.128 203.635 183.134 202.016 184.227 199.658C185.327 197.279 188.101 195.08 190.408 194.755C192.715 194.431 193.638 196.095 192.52 198.454H192.526ZM199.273 184.219C198.118 186.653 195.329 188.872 193.022 189.179C190.701 189.491 189.729 187.768 190.866 185.31C192.003 182.851 194.848 180.582 197.183 180.29C199.518 179.998 200.427 181.765 199.267 184.219H199.273ZM206.298 169.394C205.096 171.932 202.241 174.202 199.909 174.481C197.576 174.759 196.601 172.923 197.786 170.361C198.98 167.786 201.881 165.468 204.249 165.211C206.617 164.955 207.505 166.836 206.292 169.394H206.298Z" fill="url(#paint23_linear)"/>
<path d="M218.715 162.633C219.612 160.806 218.994 159.453 217.324 159.62L106.907 170.648C104.769 170.862 102.473 172.7 101.788 174.743L79.5514 241.064C78.9916 242.734 80.1418 243.809 82.1101 243.473L185.033 225.907C186.609 225.638 188.487 224.19 189.239 222.656L218.715 162.633ZM94.1703 231.526C91.4399 231.964 89.8787 230.391 90.7103 227.997C91.5448 225.583 94.4726 223.272 97.2306 222.847C99.9733 222.43 101.482 224.048 100.621 226.444C99.7654 228.822 96.8863 231.093 94.1703 231.526ZM99.2323 217.173C96.4562 217.581 94.8903 215.896 95.7553 213.393C96.6269 210.869 99.6243 208.495 102.431 208.109C105.219 207.727 106.734 209.456 105.834 211.958C104.938 214.442 101.992 216.768 99.2323 217.173ZM104.522 202.178C101.699 202.55 100.127 200.747 101.032 198.128C101.944 195.489 105.013 193.05 107.865 192.7C110.7 192.352 112.218 194.206 111.278 196.821C110.34 199.417 107.327 201.807 104.522 202.178ZM110.054 186.495C107.182 186.83 105.604 184.896 106.551 182.155C107.504 179.389 110.652 176.884 113.552 176.574C116.437 176.267 117.958 178.254 116.973 180.991C115.993 183.707 112.905 186.162 110.054 186.495ZM110.082 228.971C107.441 229.396 105.99 227.835 106.862 225.468C107.741 223.084 110.632 220.809 113.3 220.403C115.953 219.998 117.356 221.603 116.447 223.968C115.552 226.317 112.708 228.549 110.079 228.971H110.082ZM115.403 214.8C112.718 215.194 111.264 213.526 112.175 211.055C113.092 208.567 116.05 206.231 118.762 205.857C121.457 205.485 122.862 207.2 121.917 209.672C120.978 212.119 118.07 214.409 115.4 214.8H115.403ZM120.958 200.007C118.229 200.367 116.772 198.582 117.724 196.001C118.683 193.4 121.711 191.001 124.466 190.66C127.205 190.323 128.61 192.157 127.625 194.736C126.648 197.298 123.667 199.648 120.955 200.007H120.958ZM126.762 184.547C123.99 184.87 122.531 182.959 123.527 180.255C124.529 177.534 127.628 175.068 130.432 174.77C133.216 174.472 134.619 176.434 133.589 179.131C132.56 181.811 129.516 184.225 126.759 184.55L126.762 184.547ZM125.484 226.497C122.925 226.908 121.574 225.36 122.49 223.024C123.41 220.67 126.264 218.429 128.847 218.036C131.429 217.642 132.718 219.235 131.774 221.571C130.835 223.891 128.027 226.089 125.481 226.497H125.484ZM131.045 212.506C128.446 212.887 127.098 211.233 128.05 208.796C129.01 206.34 131.93 204.041 134.552 203.68C137.173 203.318 138.462 205.015 137.476 207.454C136.496 209.872 133.626 212.126 131.042 212.506H131.045ZM136.845 197.908C134.207 198.257 132.859 196.49 133.854 193.944C134.857 191.379 137.845 189.02 140.507 188.692C143.17 188.365 144.453 190.181 143.425 192.724C142.403 195.249 139.466 197.561 136.842 197.908H136.845ZM142.903 182.664C140.224 182.977 138.877 181.088 139.918 178.427C140.967 175.746 144.025 173.323 146.73 173.034C149.419 172.748 150.712 174.684 149.639 177.342C148.571 179.979 145.564 182.357 142.9 182.664H142.903ZM140.402 224.101C137.923 224.5 136.671 222.964 137.622 220.656C138.576 218.331 141.399 216.125 143.899 215.745C146.4 215.364 147.595 216.943 146.615 219.25C145.639 221.541 142.866 223.706 140.399 224.101H140.402ZM146.184 210.284C143.67 210.653 142.419 209.015 143.411 206.609C144.41 204.185 147.293 201.922 149.83 201.573C152.368 201.224 153.557 202.908 152.536 205.31C151.518 207.698 148.683 209.92 146.182 210.284H146.184ZM152.206 195.878C149.654 196.216 148.408 194.467 149.44 191.956C150.483 189.427 153.431 187.105 156.007 186.789C158.568 186.474 159.764 188.268 158.698 190.776C157.648 193.267 154.748 195.542 152.206 195.878ZM158.5 180.845C155.91 181.147 154.669 179.281 155.751 176.658C156.839 174.016 159.858 171.632 162.471 171.353C165.084 171.075 166.259 172.99 165.142 175.609C164.043 178.209 161.075 180.545 158.5 180.845ZM154.856 221.78C152.453 222.166 151.29 220.643 152.281 218.363C153.274 216.067 156.059 213.893 158.48 213.524C160.901 213.155 162.009 214.72 160.995 217C159.987 219.267 157.247 221.397 154.857 221.78H154.856ZM160.843 208.133C158.407 208.49 157.25 206.868 158.278 204.492C159.314 202.099 162.159 199.871 164.616 199.533C167.073 199.194 168.171 200.86 167.116 203.234C166.068 205.591 163.268 207.777 160.844 208.133H160.843ZM167.083 193.913C164.612 194.239 163.459 192.51 164.535 190.033C165.614 187.537 168.525 185.253 171.02 184.947C173.499 184.643 174.599 186.416 173.499 188.891C172.403 191.348 169.54 193.589 167.083 193.913ZM173.588 179.085C171.083 179.378 169.942 177.534 171.061 174.948C172.187 172.343 175.162 169.998 177.694 169.729C180.207 169.46 181.297 171.35 180.148 173.933C179.004 176.496 176.08 178.795 173.588 179.085ZM168.874 219.529C166.543 219.903 165.467 218.393 166.49 216.14C167.516 213.872 170.267 211.731 172.615 211.372C174.964 211.012 175.986 212.565 174.94 214.816C173.895 217.066 171.193 219.156 168.874 219.529ZM175.052 206.048C172.691 206.394 171.619 204.787 172.683 202.442C173.751 200.079 176.562 197.886 178.943 197.558C181.324 197.229 182.333 198.879 181.246 201.223C180.166 203.55 177.401 205.704 175.052 206.048ZM181.484 192.012C179.091 192.327 178.032 190.616 179.138 188.172C180.251 185.71 183.125 183.46 185.538 183.165C187.95 182.869 188.948 184.624 187.815 187.065C186.691 189.49 183.868 191.697 181.484 192.012ZM188.187 177.383C185.762 177.669 184.715 175.844 185.868 173.294C187.029 170.727 189.968 168.419 192.415 168.157C194.845 167.898 195.843 169.766 194.662 172.312C193.49 174.839 190.6 177.103 188.188 177.383H188.187ZM182.465 217.345C180.204 217.708 179.208 216.21 180.258 213.985C181.314 211.744 184.031 209.634 186.309 209.287C188.588 208.94 189.53 210.478 188.456 212.702C187.396 214.912 184.72 216.984 182.471 217.345H182.465ZM188.827 204.027C186.538 204.364 185.553 202.771 186.645 200.454C187.744 198.122 190.52 195.961 192.828 195.643C195.135 195.326 196.063 196.959 194.947 199.272C193.834 201.571 191.102 203.693 188.827 204.027ZM195.439 190.168C193.12 190.474 192.148 188.781 193.285 186.369C194.43 183.94 197.267 181.725 199.604 181.438C201.942 181.151 202.855 182.888 201.692 185.297C200.534 187.69 197.743 189.864 195.436 190.168H195.439ZM202.325 175.735C199.976 176.009 199.018 174.209 200.203 171.693C201.396 169.161 204.298 166.89 206.665 166.638C209.032 166.386 209.93 168.233 208.718 170.739C207.511 173.235 204.658 175.463 202.322 175.735H202.325Z" fill="url(#paint24_linear)"/>
<path d="M150.929 184.208L137.673 234.28L137.066 242.652L142.333 241.461L142.596 237.445C142.596 237.445 150.911 230.918 151.629 225.099C152.347 219.28 153.918 205.404 158.165 201.568C162.413 197.732 162.018 185.779 156.121 184.21C154.94 184.836 150.929 184.208 150.929 184.208Z" fill="url(#paint25_linear)"/>
<path d="M149.218 188.618L132.481 234.282L131.961 242.031L137.065 242.654L137.405 237.447C137.405 237.447 145.719 230.92 146.437 225.101C147.155 219.282 148.726 205.406 152.974 201.57C157.221 197.734 156.827 185.781 150.929 184.212C149.776 188.207 149.218 188.618 149.218 188.618Z" fill="url(#paint26_linear)"/>
<path d="M150.506 121.3C156.178 121.3 160.776 110.667 160.776 97.5504C160.776 84.434 156.178 73.8011 150.506 73.8011C144.833 73.8011 140.235 84.434 140.235 97.5504C140.235 110.667 144.833 121.3 150.506 121.3Z" fill="url(#paint27_linear)"/>
<path d="M150.505 119.412C155.135 119.412 158.888 109.624 158.888 97.5504C158.888 85.4764 155.135 75.6885 150.505 75.6885C145.876 75.6885 142.123 85.4764 142.123 97.5504C142.123 109.624 145.876 119.412 150.505 119.412Z" fill="url(#paint28_linear)"/>
<path d="M227.271 210.789L225.398 210.557L235.997 124.952L215.551 83.1669C214.926 81.8924 213.877 80.8756 212.583 80.2912C211.29 79.7069 209.833 79.5916 208.464 79.9651L201.818 81.7839L201.32 79.9642L207.965 78.1444C209.759 77.6559 211.666 77.8076 213.36 78.5735C215.054 79.3394 216.428 80.6716 217.245 82.3409L237.94 124.63L227.271 210.789Z" fill="url(#paint29_linear)"/>
<path d="M200.472 78.5713L191.983 81.7118C190.675 82.1956 190.007 83.6478 190.491 84.9555L190.551 85.1183C191.035 86.426 192.487 87.0939 193.794 86.6102L202.284 83.4697C203.591 82.986 204.259 81.5337 203.775 80.2261L203.715 80.0633C203.231 78.7556 201.779 78.0876 200.472 78.5713Z" fill="url(#paint30_linear)"/>
<path d="M158.491 85.742L186.408 75.4129C188.983 74.4592 191.41 75.3891 192.311 77.8231L196.433 88.9667C197.334 91.4006 196.408 94.5442 193.837 95.4951L165.92 105.823C163.345 106.777 160.111 105.171 159.211 102.737L155.088 91.5933C154.188 89.1593 155.919 86.6958 158.491 85.742Z" fill="url(#paint31_linear)"/>
<path d="M188.318 71.9291L188.073 72.0197C186.923 72.445 186.336 73.7216 186.761 74.8712L194.281 95.1999C194.706 96.3495 195.982 96.9367 197.132 96.5114L197.377 96.4208C198.527 95.9955 199.114 94.7188 198.688 93.5692L191.169 73.2406C190.744 72.091 189.468 71.5038 188.318 71.9291Z" fill="url(#paint32_linear)"/>
<path d="M158.491 85.742L171.225 81.0305L178.654 101.114L165.92 105.825C163.345 106.779 160.111 105.173 159.211 102.739L155.088 91.5951C154.188 89.1593 155.919 86.6957 158.491 85.742Z" fill="#97A6B7"/>
<g style="mix-blend-mode:multiply" opacity="0.4">
<path d="M162.974 103.1C163.105 103.052 163.248 103.043 163.384 103.075C163.52 103.108 163.644 103.18 163.739 103.283C163.834 103.385 163.897 103.514 163.919 103.652C163.941 103.79 163.921 103.932 163.863 104.059C163.804 104.187 163.71 104.294 163.59 104.367C163.471 104.44 163.333 104.476 163.193 104.471C163.053 104.466 162.918 104.419 162.804 104.337C162.691 104.254 162.605 104.14 162.556 104.009C162.491 103.833 162.499 103.639 162.577 103.468C162.655 103.298 162.798 103.165 162.974 103.1Z" fill="#97A6B7"/>
</g>
<g style="mix-blend-mode:multiply" opacity="0.4">
<path d="M162.068 100.647C162.199 100.598 162.342 100.59 162.478 100.622C162.614 100.655 162.738 100.727 162.833 100.83C162.928 100.932 162.991 101.061 163.013 101.199C163.035 101.337 163.015 101.479 162.957 101.606C162.898 101.733 162.804 101.84 162.684 101.914C162.565 101.987 162.427 102.023 162.287 102.018C162.147 102.013 162.012 101.966 161.898 101.884C161.785 101.801 161.699 101.687 161.65 101.556C161.585 101.38 161.593 101.186 161.671 101.015C161.749 100.845 161.892 100.712 162.068 100.647Z" fill="#97A6B7"/>
</g>
<g style="mix-blend-mode:multiply" opacity="0.4">
<path d="M161.162 98.1979C161.293 98.1493 161.436 98.1406 161.572 98.1731C161.708 98.2056 161.832 98.2777 161.927 98.3804C162.022 98.483 162.085 98.6116 162.107 98.7499C162.129 98.8881 162.109 99.0298 162.051 99.157C161.992 99.2842 161.898 99.3912 161.778 99.4645C161.659 99.5378 161.521 99.574 161.381 99.5687C161.241 99.5633 161.106 99.5166 160.992 99.4344C160.879 99.3522 160.793 99.2382 160.744 99.1069C160.679 98.9309 160.687 98.7364 160.765 98.5659C160.843 98.3955 160.986 98.2631 161.162 98.1979Z" fill="#97A6B7"/>
</g>
<g style="mix-blend-mode:multiply" opacity="0.4">
<path d="M160.256 95.7487C160.387 95.7 160.53 95.6914 160.666 95.7239C160.802 95.7563 160.926 95.8285 161.021 95.9312C161.116 96.0338 161.179 96.1624 161.201 96.3007C161.223 96.4389 161.203 96.5806 161.145 96.7078C161.086 96.835 160.992 96.942 160.872 97.0153C160.753 97.0886 160.615 97.1248 160.475 97.1195C160.335 97.1141 160.2 97.0673 160.087 96.9851C159.973 96.9029 159.887 96.789 159.838 96.6577C159.773 96.4817 159.781 96.2872 159.859 96.1167C159.937 95.9463 160.08 95.8139 160.256 95.7487Z" fill="#97A6B7"/>
</g>
<g style="mix-blend-mode:multiply" opacity="0.4">
<path d="M160.297 94.1285C160.383 93.7471 160.143 93.3687 159.762 93.2833C159.38 93.1979 159.002 93.4379 158.916 93.8193C158.831 94.2007 159.071 94.5791 159.452 94.6645C159.834 94.7499 160.212 94.5099 160.297 94.1285Z" fill="#97A6B7"/>
</g>
<g style="mix-blend-mode:multiply" opacity="0.4">
<path d="M158.444 90.8503C158.575 90.8016 158.718 90.793 158.854 90.8255C158.99 90.8579 159.114 90.9301 159.209 91.0327C159.304 91.1354 159.367 91.264 159.389 91.4022C159.411 91.5405 159.391 91.6822 159.333 91.8094C159.274 91.9366 159.18 92.0436 159.06 92.1168C158.941 92.1901 158.803 92.2263 158.663 92.221C158.523 92.2156 158.388 92.1689 158.274 92.0867C158.161 92.0045 158.075 91.8905 158.026 91.7592C157.961 91.5833 157.969 91.3887 158.047 91.2183C158.125 91.0479 158.268 90.9155 158.444 90.8503Z" fill="#97A6B7"/>
</g>
<g style="mix-blend-mode:multiply" opacity="0.4">
<path d="M158.432 89.3685C158.595 89.0134 158.44 88.5931 158.085 88.4298C157.73 88.2665 157.31 88.4219 157.146 88.777C156.983 89.1321 157.138 89.5524 157.493 89.7157C157.848 89.879 158.269 89.7235 158.432 89.3685Z" fill="#97A6B7"/>
</g>
<g style="mix-blend-mode:multiply" opacity="0.4">
<path d="M165.295 103.351C165.426 103.302 165.569 103.294 165.705 103.326C165.841 103.359 165.965 103.431 166.06 103.533C166.155 103.636 166.218 103.765 166.24 103.903C166.262 104.041 166.243 104.183 166.184 104.31C166.126 104.437 166.031 104.544 165.911 104.618C165.792 104.691 165.654 104.727 165.514 104.722C165.374 104.716 165.239 104.67 165.126 104.587C165.012 104.505 164.926 104.391 164.877 104.26C164.845 104.173 164.83 104.08 164.834 103.987C164.837 103.895 164.859 103.803 164.898 103.719C164.937 103.634 164.992 103.559 165.06 103.495C165.128 103.432 165.208 103.383 165.295 103.351Z" fill="#97A6B7"/>
</g>
<g style="mix-blend-mode:multiply" opacity="0.4">
<path d="M164.389 100.907C164.52 100.858 164.663 100.849 164.799 100.882C164.935 100.914 165.059 100.986 165.154 101.089C165.249 101.192 165.312 101.32 165.334 101.459C165.356 101.597 165.337 101.738 165.278 101.866C165.22 101.993 165.125 102.1 165.005 102.173C164.886 102.246 164.748 102.283 164.608 102.277C164.468 102.272 164.333 102.225 164.22 102.143C164.106 102.061 164.02 101.947 163.971 101.816C163.939 101.728 163.924 101.636 163.928 101.543C163.931 101.45 163.953 101.359 163.992 101.274C164.031 101.19 164.086 101.114 164.154 101.051C164.222 100.988 164.302 100.939 164.389 100.907Z" fill="#97A6B7"/>
</g>
<g style="mix-blend-mode:multiply" opacity="0.4">
<path d="M164.876 99.389C165.04 99.0333 164.885 98.6119 164.53 98.4477C164.174 98.2836 163.753 98.4388 163.588 98.7945C163.424 99.1502 163.58 99.5716 163.935 99.7357C164.291 99.8999 164.712 99.7446 164.876 99.389Z" fill="#97A6B7"/>
</g>
<g style="mix-blend-mode:multiply" opacity="0.4">
<path d="M162.577 96.0034C162.708 95.9547 162.851 95.946 162.987 95.9785C163.123 96.011 163.247 96.0831 163.342 96.1858C163.437 96.2885 163.5 96.4171 163.522 96.5553C163.544 96.6936 163.525 96.8353 163.466 96.9625C163.408 97.0897 163.313 97.1967 163.193 97.27C163.074 97.3432 162.936 97.3795 162.796 97.3741C162.656 97.3687 162.521 97.322 162.408 97.2398C162.294 97.1576 162.208 97.0436 162.159 96.9123C162.094 96.7364 162.102 96.5418 162.18 96.3714C162.258 96.2009 162.401 96.0686 162.577 96.0034Z" fill="#97A6B7"/>
</g>
<g style="mix-blend-mode:multiply" opacity="0.4">
<path d="M161.671 93.5542C161.802 93.5055 161.945 93.4969 162.081 93.5293C162.217 93.5618 162.341 93.6339 162.436 93.7366C162.531 93.8393 162.594 93.9679 162.616 94.1061C162.638 94.2444 162.619 94.386 162.56 94.5132C162.502 94.6405 162.407 94.7475 162.288 94.8207C162.168 94.894 162.03 94.9302 161.89 94.9249C161.75 94.9195 161.615 94.8728 161.502 94.7906C161.388 94.7084 161.302 94.5944 161.253 94.4631C161.188 94.2872 161.196 94.0926 161.274 93.9222C161.353 93.7518 161.495 93.6194 161.671 93.5542Z" fill="#97A6B7"/>
</g>
<g style="mix-blend-mode:multiply" opacity="0.4">
<path d="M160.765 91.1059C160.896 91.0572 161.039 91.0485 161.175 91.0809C161.312 91.1134 161.435 91.1855 161.53 91.2882C161.625 91.3909 161.688 91.5195 161.71 91.6578C161.732 91.7961 161.713 91.9379 161.654 92.0651C161.596 92.1923 161.501 92.2993 161.381 92.3725C161.262 92.4458 161.124 92.4819 160.984 92.4764C160.844 92.471 160.709 92.4241 160.595 92.3417C160.482 92.2594 160.396 92.1453 160.347 92.0139C160.282 91.8381 160.29 91.6436 160.368 91.4734C160.446 91.3031 160.589 91.1709 160.765 91.1059Z" fill="#97A6B7"/>
</g>
<g style="mix-blend-mode:multiply" opacity="0.4">
<path d="M159.859 88.6567C159.99 88.6079 160.133 88.5992 160.269 88.6317C160.406 88.6641 160.529 88.7363 160.624 88.839C160.72 88.9417 160.782 89.0703 160.804 89.2086C160.826 89.3469 160.807 89.4886 160.748 89.6159C160.69 89.7431 160.595 89.8501 160.475 89.9233C160.356 89.9965 160.218 90.0327 160.078 90.0272C159.938 90.0217 159.803 89.9748 159.689 89.8925C159.576 89.8101 159.49 89.696 159.441 89.5646C159.377 89.3888 159.384 89.1945 159.463 89.0243C159.541 88.8541 159.684 88.7219 159.859 88.6567Z" fill="#97A6B7"/>
</g>
<g style="mix-blend-mode:multiply" opacity="0.4">
<path d="M158.953 86.2074C159.084 86.1587 159.227 86.1501 159.363 86.1826C159.499 86.215 159.623 86.2872 159.718 86.3898C159.813 86.4925 159.876 86.6211 159.898 86.7594C159.92 86.8976 159.901 87.0393 159.842 87.1665C159.784 87.2937 159.689 87.4007 159.57 87.474C159.45 87.5473 159.312 87.5835 159.172 87.5781C159.032 87.5728 158.897 87.526 158.784 87.4438C158.67 87.3616 158.584 87.2477 158.535 87.1164C158.47 86.9404 158.478 86.7459 158.556 86.5754C158.635 86.405 158.777 86.2726 158.953 86.2074Z" fill="#97A6B7"/>
</g>
<g style="mix-blend-mode:multiply" opacity="0.4">
<path d="M167.127 101.56C167.258 101.511 167.401 101.503 167.537 101.535C167.673 101.568 167.796 101.64 167.891 101.743C167.986 101.845 168.048 101.974 168.07 102.112C168.092 102.25 168.073 102.391 168.014 102.518C167.956 102.645 167.861 102.752 167.742 102.825C167.623 102.898 167.485 102.934 167.345 102.929C167.205 102.924 167.07 102.877 166.957 102.795C166.844 102.713 166.758 102.599 166.709 102.468C166.645 102.292 166.652 102.098 166.731 101.928C166.809 101.757 166.951 101.625 167.127 101.56Z" fill="#97A6B7"/>
</g>
<g style="mix-blend-mode:multiply" opacity="0.4">
<path d="M166.683 100.455C167.054 100.334 167.258 99.9352 167.137 99.5635C167.016 99.1918 166.617 98.9884 166.245 99.1092C165.874 99.2299 165.67 99.6292 165.791 100.001C165.912 100.373 166.311 100.576 166.683 100.455Z" fill="#97A6B7"/>
</g>
<g style="mix-blend-mode:multiply" opacity="0.4">
<path d="M165.315 96.6615C165.446 96.6131 165.589 96.6046 165.725 96.6371C165.86 96.6697 165.984 96.7418 166.078 96.8443C166.173 96.9469 166.236 97.0752 166.258 97.2132C166.28 97.3512 166.26 97.4926 166.202 97.6196C166.144 97.7465 166.049 97.8533 165.93 97.9265C165.811 97.9997 165.673 98.0359 165.533 98.0306C165.394 98.0254 165.259 97.9788 165.146 97.8969C165.032 97.815 164.946 97.7014 164.897 97.5704C164.832 97.3944 164.84 97.1999 164.918 97.0295C164.996 96.859 165.139 96.7267 165.315 96.6615Z" fill="#97A6B7"/>
</g>
<g style="mix-blend-mode:multiply" opacity="0.4">
<path d="M165.357 95.0415C165.442 94.6601 165.202 94.2817 164.821 94.1963C164.439 94.1109 164.061 94.3509 163.976 94.7323C163.89 95.1137 164.13 95.4921 164.512 95.5775C164.893 95.6629 165.271 95.4229 165.357 95.0415Z" fill="#97A6B7"/>
</g>
<g style="mix-blend-mode:multiply" opacity="0.4">
<path d="M163.503 91.763C163.634 91.7146 163.777 91.7061 163.913 91.7387C164.048 91.7712 164.172 91.8433 164.267 91.9459C164.361 92.0484 164.424 92.1768 164.446 92.3148C164.468 92.4528 164.448 92.5942 164.39 92.7211C164.332 92.8481 164.237 92.9549 164.118 93.0281C163.999 93.1012 163.861 93.1375 163.721 93.1322C163.582 93.127 163.447 93.0804 163.334 92.9985C163.22 92.9166 163.134 92.8029 163.085 92.6719C163.053 92.5848 163.038 92.4922 163.042 92.3994C163.045 92.3065 163.067 92.2153 163.106 92.1308C163.145 92.0464 163.2 91.9705 163.268 91.9073C163.336 91.8442 163.416 91.7952 163.503 91.763Z" fill="#97A6B7"/>
</g>
<g style="mix-blend-mode:multiply" opacity="0.4">
<path d="M162.601 89.3138C162.732 89.2656 162.875 89.2573 163.01 89.29C163.146 89.3227 163.269 89.3949 163.364 89.4975C163.459 89.6001 163.521 89.7286 163.543 89.8665C163.565 90.0045 163.545 90.1459 163.487 90.2728C163.428 90.3996 163.334 90.5064 163.215 90.5794C163.095 90.6525 162.957 90.6886 162.818 90.6833C162.678 90.6779 162.543 90.6313 162.43 90.5493C162.317 90.4674 162.231 90.3537 162.182 90.2227C162.15 90.1356 162.135 90.0429 162.138 89.9499C162.142 89.857 162.164 89.7657 162.203 89.6812C162.242 89.5968 162.297 89.5208 162.365 89.4578C162.434 89.3947 162.514 89.3458 162.601 89.3138Z" fill="#97A6B7"/>
</g>
<g style="mix-blend-mode:multiply" opacity="0.4">
<path d="M161.691 86.8655C161.822 86.8172 161.965 86.8088 162.101 86.8415C162.237 86.8742 162.36 86.9464 162.455 87.0491C162.549 87.1517 162.612 87.2802 162.633 87.4182C162.655 87.5563 162.636 87.6977 162.577 87.8246C162.519 87.9515 162.424 88.0582 162.305 88.1313C162.186 88.2043 162.047 88.2403 161.908 88.2348C161.768 88.2294 161.633 88.1826 161.52 88.1005C161.407 88.0184 161.321 87.9046 161.273 87.7735C161.24 87.6864 161.225 87.5938 161.229 87.5009C161.233 87.4081 161.254 87.3169 161.293 87.2325C161.332 87.1482 161.387 87.0723 161.456 87.0094C161.524 86.9464 161.604 86.8975 161.691 86.8655Z" fill="#97A6B7"/>
</g>
<g style="mix-blend-mode:multiply" opacity="0.4">
<path d="M169.448 101.815C169.58 101.766 169.722 101.757 169.859 101.79C169.995 101.822 170.118 101.894 170.213 101.997C170.308 102.1 170.371 102.228 170.393 102.367C170.415 102.505 170.396 102.646 170.337 102.774C170.279 102.901 170.184 103.008 170.065 103.081C169.945 103.154 169.807 103.191 169.667 103.185C169.527 103.18 169.392 103.133 169.279 103.051C169.166 102.969 169.079 102.855 169.031 102.724C168.966 102.548 168.973 102.353 169.051 102.183C169.13 102.012 169.272 101.88 169.448 101.815Z" fill="#97A6B7"/>
</g>
<g style="mix-blend-mode:multiply" opacity="0.4">
<path d="M168.542 99.3653C168.674 99.3167 168.816 99.308 168.952 99.3405C169.089 99.373 169.212 99.4451 169.307 99.5478C169.402 99.6504 169.465 99.779 169.487 99.9173C169.509 100.056 169.49 100.197 169.431 100.324C169.373 100.452 169.278 100.559 169.159 100.632C169.039 100.705 168.901 100.741 168.761 100.736C168.621 100.731 168.486 100.684 168.373 100.602C168.259 100.52 168.173 100.406 168.125 100.274C168.06 100.098 168.067 99.9038 168.145 99.7333C168.224 99.5629 168.366 99.4305 168.542 99.3653Z" fill="#97A6B7"/>
</g>
<g style="mix-blend-mode:multiply" opacity="0.4">
<path d="M167.636 96.9161C167.768 96.8675 167.91 96.8588 168.046 96.8913C168.183 96.9238 168.306 96.9959 168.401 97.0986C168.496 97.2012 168.559 97.3298 168.581 97.4681C168.603 97.6063 168.584 97.748 168.525 97.8752C168.467 98.0024 168.372 98.1094 168.253 98.1827C168.133 98.2559 167.995 98.2922 167.855 98.2868C167.715 98.2814 167.58 98.2347 167.467 98.1525C167.354 98.0703 167.267 97.9563 167.219 97.825C167.154 97.6491 167.161 97.4546 167.239 97.2841C167.318 97.1137 167.46 96.9813 167.636 96.9161Z" fill="#97A6B7"/>
</g>
<g style="mix-blend-mode:multiply" opacity="0.4">
<path d="M167.674 95.1538C167.69 94.7633 167.386 94.4339 166.995 94.418C166.605 94.4022 166.276 94.706 166.26 95.0965C166.244 95.487 166.548 95.8164 166.938 95.8323C167.329 95.8481 167.658 95.5443 167.674 95.1538Z" fill="#97A6B7"/>
</g>
<g style="mix-blend-mode:multiply" opacity="0.4">
<path d="M165.824 92.0177C165.956 91.969 166.098 91.9604 166.234 91.9928C166.371 92.0253 166.494 92.0974 166.589 92.2001C166.684 92.3028 166.747 92.4314 166.769 92.5696C166.791 92.7078 166.772 92.8495 166.713 92.9767C166.655 93.1039 166.56 93.2109 166.441 93.2842C166.321 93.3575 166.183 93.3937 166.043 93.3884C165.903 93.383 165.768 93.3362 165.655 93.2541C165.541 93.1719 165.455 93.0579 165.407 92.9266C165.342 92.7507 165.349 92.5561 165.427 92.3857C165.506 92.2153 165.648 92.0829 165.824 92.0177Z" fill="#97A6B7"/>
</g>
<g style="mix-blend-mode:multiply" opacity="0.4">
<path d="M164.918 89.5684C165.05 89.5198 165.192 89.5111 165.329 89.5436C165.465 89.5761 165.588 89.6482 165.683 89.7509C165.779 89.8535 165.841 89.9821 165.863 90.1204C165.885 90.2586 165.866 90.4003 165.807 90.5275C165.749 90.6547 165.654 90.7617 165.535 90.835C165.416 90.9083 165.277 90.9445 165.137 90.9391C164.997 90.9338 164.862 90.887 164.749 90.8048C164.636 90.7226 164.549 90.6087 164.501 90.4774C164.436 90.3014 164.443 90.1069 164.521 89.9364C164.6 89.766 164.743 89.6336 164.918 89.5684Z" fill="#97A6B7"/>
</g>
<g style="mix-blend-mode:multiply" opacity="0.4">
<path d="M164.012 87.1202C164.144 87.0714 164.286 87.0627 164.423 87.0952C164.559 87.1276 164.682 87.1998 164.778 87.3025C164.873 87.4052 164.935 87.5338 164.957 87.6721C164.979 87.8104 164.96 87.9521 164.901 88.0794C164.843 88.2066 164.748 88.3136 164.629 88.3868C164.509 88.46 164.371 88.4962 164.231 88.4907C164.091 88.4852 163.956 88.4383 163.843 88.356C163.729 88.2736 163.643 88.1595 163.595 88.0281C163.53 87.8523 163.537 87.658 163.616 87.4878C163.694 87.3176 163.837 87.1854 164.012 87.1202Z" fill="#97A6B7"/>
</g>
<g style="mix-blend-mode:multiply" opacity="0.4">
<path d="M163.106 84.6709C163.237 84.6225 163.38 84.6141 163.516 84.6466C163.652 84.6792 163.775 84.7513 163.87 84.8538C163.965 84.9563 164.027 85.0847 164.049 85.2227C164.071 85.3607 164.052 85.5021 163.993 85.629C163.935 85.756 163.84 85.8628 163.721 85.936C163.602 86.0091 163.464 86.0454 163.325 86.0401C163.185 86.0348 163.05 85.9883 162.937 85.9064C162.824 85.8245 162.737 85.7108 162.689 85.5798C162.624 85.4039 162.631 85.2093 162.709 85.0389C162.788 84.8685 162.931 84.7361 163.106 84.6709Z" fill="#97A6B7"/>
</g>
<g style="mix-blend-mode:multiply" opacity="0.4">
<path d="M171.279 100.023C171.41 99.975 171.553 99.9665 171.689 99.999C171.825 100.032 171.948 100.104 172.043 100.206C172.138 100.309 172.2 100.437 172.222 100.575C172.244 100.713 172.225 100.855 172.166 100.982C172.108 101.109 172.013 101.215 171.894 101.289C171.775 101.362 171.637 101.398 171.497 101.393C171.358 101.387 171.223 101.34 171.11 101.258C170.996 101.176 170.91 101.063 170.862 100.931C170.797 100.756 170.804 100.561 170.883 100.391C170.961 100.221 171.104 100.088 171.279 100.023Z" fill="#97A6B7"/>
</g>
<g style="mix-blend-mode:multiply" opacity="0.4">
<path d="M171.315 98.2842C171.345 97.8945 171.053 97.5544 170.664 97.5246C170.274 97.4947 169.934 97.7864 169.904 98.1761C169.874 98.5658 170.166 98.9059 170.555 98.9358C170.945 98.9656 171.285 98.6739 171.315 98.2842Z" fill="#97A6B7"/>
</g>
<g style="mix-blend-mode:multiply" opacity="0.4">
<path d="M169.467 95.125C169.599 95.0763 169.741 95.0676 169.878 95.1001C170.014 95.1326 170.137 95.2047 170.232 95.3074C170.327 95.4101 170.39 95.5387 170.412 95.6769C170.434 95.8152 170.415 95.9569 170.356 96.0841C170.298 96.2113 170.203 96.3183 170.084 96.3916C169.964 96.4648 169.826 96.5011 169.686 96.4957C169.546 96.4903 169.411 96.4436 169.298 96.3614C169.185 96.2792 169.098 96.1652 169.05 96.0339C169.017 95.9468 169.002 95.8542 169.006 95.7613C169.009 95.6685 169.031 95.5772 169.07 95.4928C169.109 95.4084 169.164 95.3324 169.232 95.2693C169.3 95.2062 169.38 95.1572 169.467 95.125Z" fill="#97A6B7"/>
</g>
<g style="mix-blend-mode:multiply" opacity="0.4">
<path d="M168.561 92.6757C168.693 92.6271 168.835 92.6184 168.972 92.6509C169.108 92.6834 169.231 92.7555 169.326 92.8582C169.422 92.9608 169.484 93.0894 169.506 93.2277C169.528 93.3659 169.509 93.5076 169.45 93.6348C169.392 93.762 169.297 93.869 169.178 93.9423C169.058 94.0156 168.92 94.0518 168.78 94.0464C168.64 94.0411 168.505 93.9943 168.392 93.9121C168.279 93.8299 168.192 93.716 168.144 93.5847C168.079 93.4087 168.086 93.2142 168.164 93.0437C168.243 92.8733 168.386 92.7409 168.561 92.6757Z" fill="#97A6B7"/>
</g>
<g style="mix-blend-mode:multiply" opacity="0.4">
<path d="M167.655 90.2246C167.787 90.1759 167.929 90.1673 168.066 90.1998C168.202 90.2322 168.325 90.3044 168.42 90.407C168.516 90.5097 168.578 90.6383 168.6 90.7765C168.622 90.9148 168.603 91.0565 168.544 91.1837C168.486 91.3109 168.391 91.4179 168.272 91.4912C168.153 91.5645 168.014 91.6007 167.874 91.5953C167.734 91.59 167.599 91.5432 167.486 91.461C167.373 91.3788 167.286 91.2649 167.238 91.1336C167.173 90.9576 167.18 90.7631 167.259 90.5926C167.337 90.4222 167.48 90.2898 167.655 90.2246Z" fill="#97A6B7"/>
</g>
<g style="mix-blend-mode:multiply" opacity="0.4">
<path d="M166.749 87.7773C166.881 87.7286 167.023 87.72 167.16 87.7524C167.296 87.7849 167.419 87.857 167.514 87.9597C167.61 88.0624 167.672 88.191 167.694 88.3292C167.716 88.4675 167.697 88.6092 167.638 88.7364C167.58 88.8636 167.485 88.9706 167.366 89.0439C167.247 89.1171 167.108 89.1534 166.968 89.148C166.828 89.1426 166.693 89.0959 166.58 89.0137C166.467 88.9315 166.38 88.8175 166.332 88.6862C166.267 88.5103 166.274 88.3157 166.352 88.1453C166.431 87.9748 166.574 87.8425 166.749 87.7773Z" fill="#97A6B7"/>
</g>
<g style="mix-blend-mode:multiply" opacity="0.4">
<path d="M165.843 85.3281C165.975 85.2794 166.117 85.2708 166.254 85.3032C166.39 85.3357 166.513 85.4078 166.608 85.5105C166.704 85.6132 166.766 85.7418 166.788 85.88C166.81 86.0183 166.791 86.1599 166.732 86.2872C166.674 86.4144 166.579 86.5214 166.46 86.5946C166.341 86.6679 166.202 86.7042 166.062 86.6988C165.922 86.6934 165.787 86.6467 165.674 86.5645C165.561 86.4823 165.474 86.3683 165.426 86.237C165.361 86.0611 165.368 85.8665 165.446 85.6961C165.525 85.5257 165.668 85.3933 165.843 85.3281Z" fill="#97A6B7"/>
</g>
<g style="mix-blend-mode:multiply" opacity="0.4">
<path d="M174.542 100.988C174.572 100.599 174.281 100.259 173.891 100.229C173.501 100.199 173.161 100.491 173.131 100.88C173.101 101.27 173.393 101.61 173.783 101.64C174.172 101.67 174.513 101.378 174.542 100.988Z" fill="#97A6B7"/>
</g>
<g style="mix-blend-mode:multiply" opacity="0.4">
<path d="M172.696 97.8288C172.827 97.7804 172.969 97.772 173.105 97.8045C173.241 97.8371 173.364 97.9092 173.459 98.0117C173.554 98.1142 173.616 98.2426 173.638 98.3806C173.66 98.5186 173.641 98.66 173.582 98.787C173.524 98.9139 173.429 99.0208 173.31 99.0939C173.191 99.1671 173.053 99.2033 172.914 99.1981C172.774 99.1928 172.639 99.1463 172.526 99.0644C172.413 98.9824 172.327 98.8688 172.278 98.7378C172.213 98.5618 172.22 98.3673 172.299 98.1968C172.377 98.0264 172.52 97.894 172.696 97.8288Z" fill="#97A6B7"/>
</g>
<g style="mix-blend-mode:multiply" opacity="0.4">
<path d="M171.79 95.3796C171.921 95.3312 172.063 95.3227 172.199 95.3553C172.335 95.3878 172.458 95.4599 172.553 95.5625C172.648 95.665 172.71 95.7934 172.732 95.9314C172.754 96.0694 172.735 96.2108 172.676 96.3377C172.618 96.4647 172.523 96.5715 172.404 96.6447C172.285 96.7179 172.147 96.7541 172.008 96.7488C171.868 96.7436 171.733 96.6971 171.62 96.6151C171.507 96.5332 171.421 96.4196 171.372 96.2886C171.34 96.2015 171.325 96.1088 171.328 96.016C171.332 95.9231 171.353 95.8319 171.392 95.7475C171.431 95.663 171.486 95.5871 171.554 95.524C171.623 95.4608 171.702 95.4118 171.79 95.3796Z" fill="#97A6B7"/>
</g>
<g style="mix-blend-mode:multiply" opacity="0.4">
<path d="M170.884 92.9304C171.015 92.882 171.157 92.8736 171.293 92.9061C171.429 92.9387 171.552 93.0108 171.647 93.1133C171.742 93.2158 171.804 93.3442 171.826 93.4822C171.848 93.6202 171.829 93.7616 171.77 93.8885C171.712 94.0155 171.617 94.1223 171.498 94.1955C171.379 94.2686 171.241 94.3049 171.102 94.2996C170.962 94.2944 170.827 94.2478 170.714 94.1659C170.601 94.084 170.514 93.9703 170.466 93.8393C170.434 93.7522 170.419 93.6596 170.422 93.5668C170.426 93.4739 170.447 93.3827 170.486 93.2983C170.525 93.2138 170.58 93.1379 170.648 93.0748C170.716 93.0117 170.796 92.9626 170.884 92.9304Z" fill="#97A6B7"/>
</g>
<g style="mix-blend-mode:multiply" opacity="0.4">
<path d="M169.977 90.4812C170.109 90.4329 170.251 90.4246 170.387 90.4573C170.523 90.4901 170.646 90.5623 170.741 90.6649C170.835 90.7675 170.898 90.8959 170.919 91.0339C170.941 91.1719 170.922 91.3132 170.863 91.4401C170.805 91.567 170.71 91.6737 170.591 91.7468C170.472 91.8199 170.334 91.856 170.194 91.8507C170.055 91.8453 169.92 91.7987 169.807 91.7167C169.694 91.6347 169.607 91.5211 169.559 91.3901C169.527 91.3029 169.512 91.2102 169.515 91.1174C169.519 91.0245 169.541 90.9332 169.58 90.8488C169.618 90.7643 169.674 90.6884 169.742 90.6253C169.81 90.5622 169.89 90.5132 169.977 90.4812Z" fill="#97A6B7"/>
</g>
<g style="mix-blend-mode:multiply" opacity="0.4">
<path d="M170.02 88.8605C170.105 88.4791 169.865 88.1008 169.484 88.0154C169.103 87.93 168.724 88.1699 168.639 88.5513C168.553 88.9327 168.793 89.3111 169.175 89.3965C169.556 89.4819 169.935 89.2419 170.02 88.8605Z" fill="#97A6B7"/>
</g>
<g style="mix-blend-mode:multiply" opacity="0.4">
<path d="M168.166 85.5837C168.297 85.5354 168.439 85.527 168.575 85.5597C168.711 85.5924 168.834 85.6646 168.929 85.7673C169.024 85.8699 169.086 85.9984 169.108 86.1364C169.13 86.2744 169.11 86.4159 169.052 86.5428C168.993 86.6697 168.898 86.7764 168.779 86.8494C168.66 86.9224 168.522 86.9585 168.382 86.953C168.243 86.9475 168.108 86.9008 167.995 86.8187C167.882 86.7365 167.795 86.6227 167.747 86.4916C167.715 86.4045 167.7 86.3119 167.703 86.2191C167.707 86.1263 167.729 86.0351 167.768 85.9507C167.807 85.8664 167.862 85.7905 167.93 85.7275C167.998 85.6645 168.078 85.6157 168.166 85.5837Z" fill="#97A6B7"/>
</g>
<g style="mix-blend-mode:multiply" opacity="0.4">
<path d="M168.154 84.1007C168.317 83.7456 168.162 83.3254 167.807 83.162C167.452 82.9987 167.031 83.1542 166.868 83.5093C166.705 83.8643 166.86 84.2846 167.215 84.4479C167.57 84.6112 167.99 84.4558 168.154 84.1007Z" fill="#97A6B7"/>
</g>
<g style="mix-blend-mode:multiply" opacity="0.4">
<path d="M176.381 99.3164C176.467 98.935 176.227 98.5566 175.846 98.4712C175.464 98.3858 175.086 98.6258 175 99.0072C174.915 99.3886 175.155 99.767 175.536 99.8524C175.918 99.9378 176.296 99.6979 176.381 99.3164Z" fill="#97A6B7"/>
</g>
<g style="mix-blend-mode:multiply" opacity="0.4">
<path d="M174.527 96.0425C174.658 95.9937 174.801 95.985 174.937 96.0175C175.073 96.0499 175.197 96.1221 175.292 96.2248C175.387 96.3275 175.45 96.4561 175.472 96.5944C175.494 96.7327 175.474 96.8745 175.416 97.0017C175.357 97.1289 175.262 97.2359 175.143 97.3092C175.024 97.3824 174.885 97.4186 174.745 97.4131C174.605 97.4076 174.47 97.3607 174.357 97.2783C174.244 97.196 174.157 97.0819 174.109 96.9505C174.044 96.7746 174.052 96.5803 174.13 96.4101C174.208 96.2399 174.351 96.1077 174.527 96.0425Z" fill="#97A6B7"/>
</g>
<g style="mix-blend-mode:multiply" opacity="0.4">
<path d="M173.621 93.5885C173.752 93.5398 173.895 93.5312 174.031 93.5636C174.167 93.5961 174.29 93.6682 174.386 93.7709C174.481 93.8736 174.543 94.0022 174.565 94.1404C174.588 94.2787 174.568 94.4204 174.51 94.5476C174.451 94.6748 174.356 94.7818 174.237 94.855C174.118 94.9283 173.979 94.9646 173.84 94.9592C173.7 94.9538 173.565 94.9071 173.451 94.8249C173.338 94.7427 173.251 94.6287 173.203 94.4974C173.138 94.3215 173.145 94.1269 173.224 93.9565C173.302 93.786 173.445 93.6537 173.621 93.5885Z" fill="#97A6B7"/>
</g>
<g style="mix-blend-mode:multiply" opacity="0.4">
<path d="M173.657 91.826C173.673 91.4355 173.369 91.1061 172.979 91.0903C172.588 91.0745 172.259 91.3782 172.243 91.7688C172.227 92.1593 172.531 92.4887 172.921 92.5045C173.312 92.5203 173.641 92.2166 173.657 91.826Z" fill="#97A6B7"/>
</g>
<g style="mix-blend-mode:multiply" opacity="0.4">
<path d="M171.809 88.69C171.94 88.6414 172.083 88.6327 172.219 88.6652C172.355 88.6977 172.479 88.7698 172.574 88.8725C172.669 88.9752 172.731 89.1037 172.754 89.242C172.776 89.3802 172.756 89.5219 172.698 89.6491C172.639 89.7763 172.544 89.8833 172.425 89.9566C172.306 90.0299 172.167 90.0661 172.028 90.0608C171.888 90.0554 171.753 90.0086 171.639 89.9264C171.526 89.8442 171.44 89.7303 171.391 89.599C171.326 89.423 171.333 89.2285 171.412 89.0581C171.49 88.8876 171.633 88.7553 171.809 88.69Z" fill="#97A6B7"/>
</g>
<g style="mix-blend-mode:multiply" opacity="0.4">
<path d="M170.903 86.2408C171.034 86.1922 171.177 86.1835 171.313 86.216C171.449 86.2485 171.572 86.3206 171.668 86.4233C171.763 86.5259 171.825 86.6545 171.847 86.7928C171.869 86.931 171.85 87.0727 171.792 87.1999C171.733 87.3271 171.638 87.4341 171.519 87.5073C171.4 87.5806 171.261 87.6169 171.121 87.6115C170.982 87.6061 170.846 87.5594 170.733 87.4772C170.62 87.395 170.533 87.281 170.485 87.1497C170.42 86.9738 170.427 86.7793 170.506 86.6088C170.584 86.4384 170.727 86.306 170.903 86.2408Z" fill="#97A6B7"/>
</g>
<g style="mix-blend-mode:multiply" opacity="0.4">
<path d="M169.997 83.7916C170.128 83.7429 170.271 83.7343 170.407 83.7668C170.543 83.7992 170.666 83.8714 170.762 83.974C170.857 84.0767 170.919 84.2053 170.941 84.3435C170.964 84.4818 170.944 84.6235 170.886 84.7507C170.827 84.8779 170.732 84.9849 170.613 85.0581C170.494 85.1314 170.355 85.1677 170.216 85.1623C170.076 85.1569 169.941 85.1102 169.827 85.028C169.714 84.9458 169.628 84.8318 169.579 84.7005C169.514 84.5246 169.521 84.33 169.6 84.1596C169.678 83.9892 169.821 83.8568 169.997 83.7916Z" fill="#97A6B7"/>
</g>
<g style="mix-blend-mode:multiply" opacity="0.4">
<path d="M177.754 98.7416C177.885 98.6928 178.028 98.6841 178.164 98.7166C178.3 98.749 178.424 98.8212 178.519 98.9239C178.614 99.0266 178.677 99.1552 178.699 99.2935C178.721 99.4318 178.702 99.5736 178.643 99.7008C178.585 99.828 178.49 99.935 178.37 100.008C178.251 100.081 178.112 100.118 177.973 100.112C177.833 100.107 177.697 100.06 177.584 99.9774C177.471 99.8951 177.385 99.781 177.336 99.6496C177.271 99.4738 177.279 99.2793 177.357 99.109C177.435 98.9388 177.578 98.8066 177.754 98.7416Z" fill="#97A6B7"/>
</g>
<g style="mix-blend-mode:multiply" opacity="0.4">
<path d="M176.848 96.2924C176.979 96.2436 177.122 96.2349 177.258 96.2674C177.394 96.2998 177.518 96.372 177.613 96.4747C177.708 96.5774 177.771 96.706 177.793 96.8443C177.815 96.9826 177.796 97.1244 177.737 97.2516C177.678 97.3788 177.584 97.4858 177.464 97.5591C177.345 97.6323 177.206 97.6684 177.066 97.663C176.926 97.6575 176.791 97.6106 176.678 97.5282C176.565 97.4459 176.478 97.3318 176.43 97.2004C176.365 97.0246 176.373 96.8301 176.451 96.6599C176.529 96.4896 176.672 96.3574 176.848 96.2924Z" fill="#97A6B7"/>
</g>
<g style="mix-blend-mode:multiply" opacity="0.4">
<path d="M176.405 95.1879C176.776 95.0671 176.98 94.6679 176.859 94.2962C176.738 93.9245 176.339 93.721 175.967 93.8418C175.596 93.9626 175.392 94.3618 175.513 94.7335C175.634 95.1052 176.033 95.3087 176.405 95.1879Z" fill="#97A6B7"/>
</g>
<g style="mix-blend-mode:multiply" opacity="0.4">
<path d="M175.036 91.3939C175.167 91.3452 175.31 91.3366 175.446 91.3691C175.582 91.4015 175.706 91.4737 175.801 91.5763C175.896 91.679 175.959 91.8076 175.981 91.9458C176.003 92.0841 175.983 92.2258 175.925 92.353C175.866 92.4802 175.772 92.5872 175.652 92.6605C175.533 92.7338 175.395 92.77 175.255 92.7646C175.115 92.7593 174.98 92.7125 174.866 92.6303C174.753 92.5481 174.667 92.4342 174.618 92.3028C174.553 92.1269 174.561 91.9323 174.639 91.7619C174.717 91.5915 174.86 91.4591 175.036 91.3939Z" fill="#97A6B7"/>
</g>
<g style="mix-blend-mode:multiply" opacity="0.4">
<path d="M174.13 88.9447C174.261 88.896 174.404 88.8874 174.54 88.9199C174.676 88.9523 174.8 89.0245 174.895 89.1271C174.99 89.2298 175.053 89.3584 175.075 89.4966C175.097 89.6349 175.077 89.7766 175.019 89.9038C174.961 90.031 174.866 90.138 174.746 90.2113C174.627 90.2845 174.489 90.3208 174.349 90.3154C174.209 90.31 174.074 90.2633 173.961 90.1811C173.847 90.0989 173.761 89.9849 173.712 89.8536C173.647 89.6777 173.655 89.4831 173.733 89.3127C173.811 89.1423 173.954 89.0099 174.13 88.9447Z" fill="#97A6B7"/>
</g>
<g style="mix-blend-mode:multiply" opacity="0.4">
<path d="M173.224 86.4955C173.355 86.4468 173.498 86.4382 173.634 86.4706C173.77 86.5031 173.894 86.5752 173.989 86.6779C174.084 86.7806 174.147 86.9092 174.169 87.0474C174.191 87.1857 174.171 87.3273 174.113 87.4546C174.054 87.5818 173.96 87.6888 173.84 87.762C173.721 87.8353 173.583 87.8716 173.443 87.8662C173.303 87.8608 173.168 87.8141 173.054 87.7319C172.941 87.6497 172.855 87.5357 172.806 87.4044C172.741 87.2285 172.749 87.0339 172.827 86.8635C172.905 86.6931 173.048 86.5607 173.224 86.4955Z" fill="#97A6B7"/>
</g>
<g style="mix-blend-mode:multiply" opacity="0.4">
<path d="M172.318 84.0462C172.449 83.9976 172.592 83.9889 172.728 84.0214C172.864 84.0539 172.988 84.126 173.083 84.2287C173.178 84.3314 173.241 84.4599 173.263 84.5982C173.285 84.7364 173.265 84.8781 173.207 85.0053C173.148 85.1325 173.054 85.2395 172.934 85.3128C172.815 85.3861 172.677 85.4223 172.537 85.4169C172.397 85.4116 172.262 85.3648 172.148 85.2826C172.035 85.2004 171.949 85.0865 171.9 84.9552C171.835 84.7792 171.843 84.5847 171.921 84.4143C171.999 84.2438 172.142 84.1115 172.318 84.0462Z" fill="#97A6B7"/>
</g>
<g style="mix-blend-mode:multiply" opacity="0.4">
<path d="M171.412 81.5979C171.543 81.5495 171.686 81.541 171.821 81.5735C171.957 81.606 172.081 81.6781 172.176 81.7807C172.271 81.8832 172.333 82.0117 172.355 82.1497C172.377 82.2878 172.357 82.4292 172.299 82.5562C172.241 82.6832 172.146 82.79 172.027 82.8631C171.908 82.9362 171.769 82.9724 171.63 82.967C171.49 82.9616 171.355 82.9149 171.242 82.8329C171.129 82.7508 171.043 82.637 170.994 82.5059C170.929 82.3301 170.937 82.1357 171.015 81.9654C171.093 81.7951 171.236 81.663 171.412 81.5979Z" fill="#97A6B7"/>
</g>
<path d="M180.568 100.264C180.669 100.537 180.716 100.828 180.704 101.119C180.693 101.41 180.625 101.696 180.503 101.961C180.381 102.226 180.209 102.464 179.995 102.662C179.781 102.86 179.53 103.014 179.257 103.115L179.012 103.206C178.738 103.307 178.448 103.354 178.157 103.342C177.865 103.331 177.579 103.263 177.314 103.141C177.05 103.019 176.811 102.847 176.613 102.633C176.415 102.419 176.261 102.168 176.16 101.895L168.641 81.5674C168.539 81.2941 168.493 81.0035 168.504 80.7122C168.515 80.421 168.584 80.1348 168.706 79.87C168.827 79.6052 169 79.3669 169.214 79.1689C169.428 78.9708 169.678 78.8169 169.952 78.7157L170.196 78.6204C170.469 78.5191 170.76 78.4726 171.051 78.4837C171.343 78.4948 171.629 78.5632 171.894 78.685C172.159 78.8068 172.397 78.9796 172.595 79.1935C172.793 79.4074 172.947 79.6583 173.048 79.9318L180.568 100.264Z" fill="url(#paint33_linear)"/>
<path d="M183.062 78.9466L178.687 66.1511L175.228 67.3347L179.604 80.1311C179.651 80.2677 179.724 80.3939 179.819 80.5022C179.915 80.6106 180.031 80.6991 180.16 80.7627C180.29 80.8263 180.431 80.8637 180.575 80.8728C180.719 80.882 180.864 80.8626 181 80.8159L182.377 80.339C182.652 80.2448 182.879 80.0454 183.007 79.7843C183.136 79.5233 183.155 79.222 183.062 78.9466Z" fill="#97A6B7"/>
<path d="M221.834 59.0527L178.008 60.9587L178.122 63.5676L221.947 61.6616L221.834 59.0527Z" fill="#97A6B7"/>
<path d="M222.004 64.0527L178.137 65.8075L178.242 68.4189L222.109 66.6641L222.004 64.0527Z" fill="#97A6B7"/>
<path d="M181.356 65.5289C181.813 62.7119 179.9 60.0576 177.084 59.6003C174.267 59.1431 171.613 61.056 171.156 63.873C170.698 66.69 172.611 69.3443 175.428 69.8016C178.245 70.2589 180.899 68.3459 181.356 65.5289Z" fill="url(#paint34_linear)"/>
<g style="mix-blend-mode:soft-light" opacity="0.3">
<path d="M177.568 67.8175C179.265 67.1146 180.071 65.1692 179.368 63.4722C178.665 61.7753 176.72 60.9695 175.023 61.6724C173.326 62.3752 172.52 64.3207 173.223 66.0176C173.926 67.7146 175.871 68.5204 177.568 67.8175Z" fill="white"/>
</g>
<path d="M181.689 79.226C181.689 79.3392 181.655 79.4498 181.592 79.5439C181.529 79.638 181.44 79.7114 181.336 79.7547C181.231 79.798 181.116 79.8093 181.005 79.7873C180.894 79.7652 180.792 79.7107 180.712 79.6307C180.632 79.5506 180.577 79.4487 180.555 79.3377C180.533 79.2266 180.545 79.1116 180.588 79.007C180.631 78.9025 180.705 78.8131 180.799 78.7502C180.893 78.6873 181.003 78.6538 181.117 78.6538C181.268 78.6538 181.414 78.7141 181.521 78.8214C181.628 78.9287 181.689 79.0742 181.689 79.226Z" fill="url(#paint35_linear)"/>
<path d="M235.414 210.799L232.594 210.548L240.24 124.594L224.965 65.8544L227.704 65.142L243.104 124.355L243.082 124.6L235.414 210.799Z" fill="#97A6B7"/>
<path d="M240.131 210.798L237.311 210.548L244.958 124.597L228.149 61.2574L230.885 60.5316L247.822 124.352L240.131 210.798Z" fill="#97A6B7"/>
<path d="M250.505 129.795C254.445 125.854 254.445 119.465 250.505 115.524C246.565 111.584 240.176 111.584 236.236 115.524C232.295 119.465 232.295 125.854 236.236 129.795C240.176 133.735 246.565 133.735 250.505 129.795Z" fill="url(#paint36_linear)"/>
<g style="mix-blend-mode:soft-light" opacity="0.3">
<path d="M243.462 129.245C247.048 129.245 249.955 126.338 249.955 122.751C249.955 119.165 247.048 116.257 243.462 116.257C239.876 116.257 236.968 119.165 236.968 122.751C236.968 126.338 239.876 129.245 243.462 129.245Z" fill="white"/>
</g>
<path d="M226.27 68.8206C230.215 68.8206 233.413 65.6223 233.413 61.677C233.413 57.7317 230.215 54.5334 226.27 54.5334C222.325 54.5334 219.127 57.7317 219.127 61.677C219.127 65.6223 222.325 68.8206 226.27 68.8206Z" fill="url(#paint37_linear)"/>
<g style="mix-blend-mode:soft-light" opacity="0.3">
<path d="M226.335 66.3399C228.874 66.3399 230.932 64.2813 230.932 61.7419C230.932 59.2024 228.874 57.1438 226.335 57.1438C223.796 57.1438 221.737 59.2024 221.737 61.7419C221.737 64.2813 223.796 66.3399 226.335 66.3399Z" fill="white"/>
</g>
<path d="M151.477 70.7252H149.502V61.8353C149.502 59.6579 151.149 57.842 153.303 57.5177L199.814 50.5268C200.434 50.4338 201.066 50.4759 201.668 50.6502C202.269 50.8245 202.826 51.127 203.3 51.5367C203.774 51.9465 204.154 52.4539 204.413 53.0242C204.672 53.5944 204.805 54.2141 204.803 54.8406V59.2011H202.828V54.8406C202.828 54.1186 202.592 53.4338 202.045 52.9626C201.782 52.7299 201.472 52.558 201.136 52.4591C200.799 52.3602 200.445 52.3367 200.098 52.3904L153.608 59.3842C153.017 59.4682 152.477 59.7622 152.086 60.2124C151.694 60.6626 151.478 61.2388 151.477 61.8353V70.7252Z" fill="url(#paint38_linear)"/>
<path d="M204.536 57.2287H204.41C203.172 57.2287 202.169 58.2322 202.169 59.47V66.8387C202.169 68.0765 203.172 69.08 204.41 69.08H204.536C205.774 69.08 206.777 68.0765 206.777 66.8387V59.47C206.777 58.2322 205.774 57.2287 204.536 57.2287Z" fill="url(#paint39_linear)"/>
<path d="M121.626 163.732C121.626 163.732 125.363 163.778 127.777 164.16C135.166 163.008 204.144 156.587 204.144 156.587C204.144 156.587 200.771 154.815 198.422 154.711C196.073 154.607 121.626 163.732 121.626 163.732Z" fill="#D8DEE8"/>
<path d="M195.911 258.472C185.999 255.324 177.696 244.833 177.028 234.605C175.82 216.007 196.341 214.718 203.826 201.398C209.911 190.566 207.832 176.91 214.351 166.241C220.084 156.857 231.822 150.901 242.806 152.889C252.277 154.605 260.596 162.857 262.269 172.524C263.517 179.725 261.81 189.898 258.16 196.292C255.177 201.517 251.365 206.142 246.343 209.514C242.257 212.258 237.206 213.892 233.967 217.75C227.83 225.06 228.811 236.372 225.398 244.772C223.014 250.642 217.347 256.208 211.361 258.283C206.369 260.024 200.945 260.09 195.911 258.472Z" fill="url(#paint40_linear)"/>
<g style="mix-blend-mode:soft-light" opacity="0.8">
<g style="mix-blend-mode:soft-light" opacity="0.8">
<path d="M195.828 255.509C195.901 255.514 195.974 255.494 196.035 255.452C196.095 255.41 196.14 255.35 196.162 255.279C196.2 255.16 200.019 243.146 207.145 227.672C213.719 213.399 224.528 193.182 238.703 177.913C238.753 177.849 238.777 177.768 238.77 177.686C238.763 177.605 238.727 177.529 238.667 177.473C238.608 177.418 238.529 177.386 238.448 177.385C238.366 177.384 238.287 177.413 238.226 177.467C223.991 192.8 213.144 213.087 206.549 227.406C199.408 242.916 195.582 254.962 195.541 255.082C195.528 255.123 195.523 255.166 195.526 255.209C195.53 255.252 195.542 255.294 195.562 255.332C195.582 255.371 195.609 255.404 195.642 255.432C195.675 255.46 195.713 255.481 195.754 255.494C195.778 255.502 195.803 255.507 195.828 255.509Z" fill="white"/>
</g>
</g>
<path d="M216.102 218.891C237.535 202.165 254.012 211.313 255.643 220.461C257.257 229.522 253.785 275.956 196.449 259.503C195.954 259.361 195.523 259.052 195.23 258.629C194.937 258.205 194.8 257.693 194.843 257.18C195.319 251.368 198.248 232.821 216.102 218.891Z" fill="url(#paint41_linear)"/>
<g style="mix-blend-mode:soft-light" opacity="0.8">
<g style="mix-blend-mode:soft-light" opacity="0.8">
<path d="M196.617 257.683C196.675 257.687 196.733 257.675 196.786 257.648C196.838 257.622 196.882 257.582 196.914 257.533C196.946 257.485 200.196 252.53 207.254 246.214C213.767 240.386 224.949 232.174 241.229 226.147C241.27 226.132 241.307 226.109 241.338 226.08C241.37 226.051 241.396 226.016 241.414 225.976C241.432 225.937 241.442 225.895 241.444 225.852C241.445 225.809 241.438 225.766 241.423 225.725C241.408 225.685 241.386 225.648 241.356 225.616C241.327 225.584 241.292 225.559 241.253 225.541C241.213 225.523 241.171 225.513 241.128 225.511C241.085 225.509 241.042 225.516 241.001 225.531C224.612 231.598 213.353 239.872 206.794 245.744C199.68 252.114 196.399 257.126 196.363 257.176C196.315 257.249 196.299 257.337 196.316 257.423C196.334 257.508 196.385 257.583 196.458 257.63C196.506 257.661 196.56 257.679 196.617 257.683Z" fill="white"/>
</g>
<g style="mix-blend-mode:soft-light" opacity="0.8">
<path d="M215.16 239.788C215.192 239.79 215.224 239.787 215.255 239.78C215.297 239.771 215.337 239.753 215.372 239.728C215.407 239.704 215.438 239.672 215.461 239.636C215.484 239.599 215.499 239.559 215.507 239.516C215.514 239.474 215.513 239.43 215.504 239.388C215.481 239.282 213.259 228.723 222.797 222.54C222.868 222.492 222.917 222.418 222.934 222.333C222.951 222.249 222.935 222.161 222.888 222.089C222.841 222.017 222.768 221.966 222.684 221.947C222.6 221.928 222.512 221.943 222.439 221.988C217.251 225.352 215.467 229.941 214.883 233.199C214.252 236.728 214.837 239.419 214.863 239.531C214.878 239.6 214.915 239.662 214.969 239.708C215.022 239.755 215.089 239.782 215.16 239.788Z" fill="white"/>
</g>
<g style="mix-blend-mode:soft-light" opacity="0.8">
<path d="M232.72 238.775C234.904 238.916 237.514 238.593 240.512 237.381C240.554 237.366 240.592 237.343 240.624 237.313C240.657 237.283 240.683 237.246 240.701 237.206C240.719 237.166 240.729 237.122 240.729 237.078C240.73 237.033 240.722 236.989 240.705 236.948C240.689 236.907 240.664 236.87 240.633 236.839C240.601 236.808 240.564 236.783 240.523 236.767C240.482 236.75 240.438 236.742 240.393 236.743C240.349 236.744 240.306 236.754 240.265 236.772C229.614 241.078 223.957 233.889 223.905 233.815C223.879 233.781 223.846 233.752 223.809 233.731C223.772 233.709 223.73 233.695 223.688 233.689C223.645 233.684 223.601 233.686 223.56 233.697C223.518 233.708 223.479 233.728 223.445 233.754C223.411 233.78 223.382 233.813 223.36 233.85C223.339 233.887 223.324 233.928 223.319 233.971C223.313 234.014 223.316 234.057 223.327 234.099C223.338 234.141 223.357 234.18 223.383 234.214C223.443 234.293 224.899 236.171 227.749 237.511C229.312 238.242 230.998 238.67 232.72 238.775Z" fill="white"/>
</g>
<g style="mix-blend-mode:soft-light" opacity="0.8">
<path d="M214.708 252.537C216.892 252.679 219.502 252.356 222.5 251.144C222.542 251.129 222.58 251.106 222.612 251.076C222.645 251.045 222.671 251.009 222.689 250.969C222.707 250.928 222.716 250.884 222.717 250.84C222.718 250.796 222.71 250.752 222.693 250.711C222.677 250.67 222.652 250.633 222.62 250.601C222.589 250.57 222.552 250.546 222.511 250.529C222.47 250.513 222.426 250.505 222.381 250.506C222.337 250.507 222.293 250.516 222.253 250.535C211.602 254.841 205.945 247.651 205.893 247.578C205.867 247.544 205.834 247.515 205.797 247.493C205.759 247.472 205.718 247.458 205.676 247.452C205.633 247.446 205.589 247.449 205.548 247.46C205.506 247.471 205.467 247.49 205.433 247.516C205.398 247.543 205.37 247.575 205.348 247.613C205.326 247.65 205.312 247.691 205.307 247.734C205.301 247.776 205.304 247.82 205.315 247.862C205.326 247.903 205.345 247.942 205.371 247.977C205.431 248.057 206.887 249.934 209.737 251.275C211.3 252.004 212.986 252.433 214.708 252.537Z" fill="white"/>
</g>
</g>
<path d="M90.926 77.5176C105.019 63.4233 105.019 40.5718 90.926 26.4775C76.8328 12.3832 53.9832 12.3832 39.89 26.4775C25.7969 40.5718 25.7969 63.4233 39.89 77.5176C53.9832 91.6119 76.8328 91.6119 90.926 77.5176Z" fill="white"/>
<path d="M88.0754 74.6669C100.594 62.147 100.594 41.8481 88.0754 29.3282C75.5565 16.8083 55.2593 16.8083 42.7404 29.3282C30.2215 41.8481 30.2215 62.147 42.7404 74.6669C55.2593 87.1868 75.5565 87.1869 88.0754 74.6669Z" fill="url(#paint42_linear)"/>
<path d="M65.4572 62.3484C69.0087 62.2979 71.905 59.5521 71.9021 56.2445L71.8821 34.2043C71.8821 30.8996 68.9772 28.2024 65.4257 28.2138C61.8743 28.2252 58.9503 30.9501 58.9532 34.2691L58.9741 56.4037C58.977 59.7247 61.8981 62.399 65.4572 62.3484Z" fill="white"/>
<path d="M75.6795 51.7285C75.1073 51.7342 74.6429 52.1729 74.6438 52.7089V56.8377C74.6438 61.5626 70.5335 65.4691 65.4562 65.5464C60.3626 65.6246 56.2056 61.821 56.197 57.0676V52.914C56.197 52.3751 55.7259 51.9431 55.1479 51.9497C54.57 51.9564 54.0989 52.398 54.0989 52.9369V57.0933C54.1037 62.5974 58.6527 67.0571 64.4167 67.4596L64.4224 73.7706L60.9653 73.8326C60.3865 73.843 59.9163 74.2875 59.9163 74.8254C59.9163 75.3633 60.3865 75.7916 60.9653 75.7792L69.9565 75.6123C70.5287 75.6018 70.997 75.1583 70.996 74.6223C70.9951 74.0863 70.5297 73.6599 69.9546 73.6685L66.509 73.7305L66.5052 67.43C72.2387 66.8463 76.7257 62.2798 76.7209 56.8158V52.6899C76.7162 52.151 76.2517 51.7218 75.6795 51.7285Z" fill="white"/>
<path d="M201.781 132.722C199.23 139.916 194.173 145.951 187.536 149.72C187.226 149.899 186.883 150.012 186.529 150.051C186.174 150.091 185.814 150.057 185.473 149.951C185.132 149.845 184.817 149.67 184.546 149.437C184.276 149.203 184.057 148.916 183.903 148.594L183.837 148.458C183.559 147.872 183.511 147.204 183.704 146.585C183.897 145.966 184.316 145.443 184.878 145.12C190.416 141.975 194.639 136.943 196.775 130.943C198.911 124.942 198.818 118.374 196.513 112.436C196.282 111.831 196.289 111.16 196.531 110.559C196.773 109.958 197.233 109.471 197.819 109.194L197.956 109.129C198.28 108.976 198.631 108.892 198.988 108.882C199.345 108.872 199.701 108.936 200.032 109.07C200.363 109.203 200.663 109.404 200.913 109.659C201.163 109.915 201.358 110.219 201.485 110.553C204.245 117.667 204.35 125.537 201.781 132.722Z" fill="url(#paint43_linear)"/>
<path d="M193.44 129.752C191.678 134.723 188.255 138.934 183.749 141.674C183.44 141.86 183.095 141.979 182.737 142.024C182.38 142.068 182.016 142.037 181.671 141.932C181.326 141.828 181.007 141.651 180.734 141.416C180.462 141.18 180.242 140.889 180.088 140.562L180.078 140.54C179.805 139.957 179.759 139.294 179.947 138.678C180.135 138.063 180.544 137.539 181.095 137.208C184.557 135.082 187.187 131.835 188.549 128.008C189.912 124.18 189.925 120.002 188.586 116.167C188.367 115.561 188.381 114.897 188.625 114.302C188.868 113.706 189.323 113.222 189.903 112.943L189.926 112.931C190.251 112.776 190.605 112.69 190.966 112.679C191.326 112.669 191.684 112.734 192.018 112.871C192.351 113.008 192.652 113.214 192.901 113.474C193.15 113.735 193.342 114.045 193.464 114.384C195.225 119.357 195.217 124.785 193.44 129.752Z" fill="url(#paint44_linear)"/>
<path d="M176.247 132.469C175.681 131.275 176.068 129.873 177.12 129.073C178.485 128.031 179.518 126.616 180.093 124.998C180.669 123.38 180.762 121.63 180.362 119.961C180.052 118.675 180.638 117.344 181.832 116.777L181.847 116.77C182.191 116.607 182.566 116.522 182.946 116.521C183.326 116.519 183.702 116.602 184.047 116.762C184.392 116.923 184.697 117.158 184.941 117.45C185.184 117.742 185.36 118.084 185.457 118.452C186.176 121.201 186.052 124.103 185.099 126.78C184.147 129.458 182.41 131.786 180.116 133.463C179.809 133.687 179.456 133.841 179.083 133.913C178.71 133.985 178.325 133.974 177.956 133.881C177.588 133.787 177.244 133.614 176.951 133.372C176.657 133.131 176.42 132.828 176.257 132.484L176.247 132.469Z" fill="url(#paint45_linear)"/>
</g>
<defs>
<linearGradient id="paint0_linear" x1="152.03" y1="68.3046" x2="149.462" y2="74.5334" gradientUnits="userSpaceOnUse">
<stop stop-color="#40447E"/>
<stop offset="1" stop-color="#3C3B6B"/>
</linearGradient>
<linearGradient id="paint1_linear" x1="57.8745" y1="155.507" x2="205.939" y2="227.585" gradientUnits="userSpaceOnUse">
<stop stop-color="#FF9085"/>
<stop offset="1" stop-color="#FB6FBB"/>
</linearGradient>
<linearGradient id="paint2_linear" x1="27143.8" y1="180290" x2="95072.8" y2="180290" gradientUnits="userSpaceOnUse">
<stop stop-color="#FF9085"/>
<stop offset="1" stop-color="#FB6FBB"/>
</linearGradient>
<linearGradient id="paint3_linear" x1="48302.2" y1="212077" x2="202370" y2="270310" gradientUnits="userSpaceOnUse">
<stop stop-color="#FF9085"/>
<stop offset="1" stop-color="#FB6FBB"/>
</linearGradient>
<linearGradient id="paint4_linear" x1="109.077" y1="223.568" x2="109.321" y2="223.568" gradientUnits="userSpaceOnUse">
<stop stop-color="#FFC444"/>
<stop offset="1" stop-color="#F36F56"/>
</linearGradient>
<linearGradient id="paint5_linear" x1="36038.7" y1="30986.4" x2="51542.6" y2="30986.4" gradientUnits="userSpaceOnUse">
<stop stop-color="#FFC444"/>
<stop offset="1" stop-color="#F36F56"/>
</linearGradient>
<linearGradient id="paint6_linear" x1="133.837" y1="88.7188" x2="129.515" y2="93.6663" gradientUnits="userSpaceOnUse">
<stop stop-color="#AA80F9"/>
<stop offset="1" stop-color="#6165D7"/>
</linearGradient>
<linearGradient id="paint7_linear" x1="14981.4" y1="15118.3" x2="16634" y2="13395.2" gradientUnits="userSpaceOnUse">
<stop stop-color="#AA80F9"/>
<stop offset="1" stop-color="#6165D7"/>
</linearGradient>
<linearGradient id="paint8_linear" x1="132.07" y1="90.871" x2="133.385" y2="90.2338" gradientUnits="userSpaceOnUse">
<stop stop-color="#444B8C"/>
<stop offset="1" stop-color="#3E4177"/>
</linearGradient>
<linearGradient id="paint9_linear" x1="15571" y1="13298.7" x2="14965.9" y2="13662.4" gradientUnits="userSpaceOnUse">
<stop stop-color="#AA80F9"/>
<stop offset="1" stop-color="#6165D7"/>
</linearGradient>
<linearGradient id="paint10_linear" x1="125.262" y1="92.5512" x2="129.843" y2="93.0407" gradientUnits="userSpaceOnUse">
<stop stop-color="#6165D7"/>
<stop offset="1" stop-color="#AA80F9"/>
</linearGradient>
<linearGradient id="paint11_linear" x1="3336.62" y1="1140.39" x2="3336.33" y2="1140.29" gradientUnits="userSpaceOnUse">
<stop stop-color="#311944"/>
<stop offset="1" stop-color="#A03976"/>
</linearGradient>
<linearGradient id="paint12_linear" x1="-101463" y1="-72989.8" x2="-101450" y2="-73039" gradientUnits="userSpaceOnUse">
<stop stop-color="#FFC444"/>
<stop offset="1" stop-color="#F36F56"/>
</linearGradient>
<linearGradient id="paint13_linear" x1="-550231" y1="40917.6" x2="-550171" y2="40917.6" gradientUnits="userSpaceOnUse">
<stop stop-color="#311944"/>
<stop offset="1" stop-color="#A03976"/>
</linearGradient>
<linearGradient id="paint14_linear" x1="299.426" y1="-442.377" x2="299.502" y2="-442.608" gradientUnits="userSpaceOnUse">
<stop stop-color="#FFC444"/>
<stop offset="1" stop-color="#F36F56"/>
</linearGradient>
<linearGradient id="paint15_linear" x1="36094.6" y1="13124.9" x2="37217.1" y2="10572" gradientUnits="userSpaceOnUse">
<stop stop-color="#AA80F9"/>
<stop offset="1" stop-color="#6165D7"/>
</linearGradient>
<linearGradient id="paint16_linear" x1="33022.6" y1="6931.15" x2="32916.1" y2="7393.95" gradientUnits="userSpaceOnUse">
<stop stop-color="#AA80F9"/>
<stop offset="1" stop-color="#6165D7"/>
</linearGradient>
<linearGradient id="paint17_linear" x1="33071.4" y1="6504.1" x2="32984.7" y2="6909.63" gradientUnits="userSpaceOnUse">
<stop stop-color="#AA80F9"/>
<stop offset="1" stop-color="#6165D7"/>
</linearGradient>
<linearGradient id="paint18_linear" x1="13161.7" y1="14572.3" x2="13944.5" y2="14572.3" gradientUnits="userSpaceOnUse">
<stop stop-color="#AA80F9"/>
<stop offset="1" stop-color="#6165D7"/>
</linearGradient>
<linearGradient id="paint19_linear" x1="25117.5" y1="10175.9" x2="24332.5" y2="10918.5" gradientUnits="userSpaceOnUse">
<stop stop-color="#AA80F9"/>
<stop offset="1" stop-color="#6165D7"/>
</linearGradient>
<linearGradient id="paint20_linear" x1="14007.3" y1="13396.7" x2="14950.8" y2="13396.7" gradientUnits="userSpaceOnUse">
<stop stop-color="#AA80F9"/>
<stop offset="1" stop-color="#6165D7"/>
</linearGradient>
<linearGradient id="paint21_linear" x1="8486.83" y1="9625.26" x2="8828.97" y2="9625.26" gradientUnits="userSpaceOnUse">
<stop stop-color="#AA80F9"/>
<stop offset="1" stop-color="#6165D7"/>
</linearGradient>
<linearGradient id="paint22_linear" x1="5271.34" y1="7737.09" x2="5588.64" y2="7514.35" gradientUnits="userSpaceOnUse">
<stop stop-color="#311944"/>
<stop offset="1" stop-color="#A03976"/>
</linearGradient>
<linearGradient id="paint23_linear" x1="140527" y1="191996" x2="326385" y2="91753.6" gradientUnits="userSpaceOnUse">
<stop stop-color="#311944"/>
<stop offset="1" stop-color="#A03976"/>
</linearGradient>
<linearGradient id="paint24_linear" x1="263737" y1="194520" x2="185251" y2="112053" gradientUnits="userSpaceOnUse">
<stop stop-color="#311944"/>
<stop offset="1" stop-color="#A03976"/>
</linearGradient>
<linearGradient id="paint25_linear" x1="34539" y1="130970" x2="40546.8" y2="130970" gradientUnits="userSpaceOnUse">
<stop stop-color="#311944"/>
<stop offset="1" stop-color="#A03976"/>
</linearGradient>
<linearGradient id="paint26_linear" x1="33133" y1="130966" x2="39097.3" y2="130966" gradientUnits="userSpaceOnUse">
<stop stop-color="#311944"/>
<stop offset="1" stop-color="#A03976"/>
</linearGradient>
<linearGradient id="paint27_linear" x1="30344.2" y1="48655.8" x2="34767.9" y2="48655.8" gradientUnits="userSpaceOnUse">
<stop stop-color="#40447E"/>
<stop offset="1" stop-color="#3C3B6B"/>
</linearGradient>
<linearGradient id="paint28_linear" x1="27857.6" y1="36847.3" x2="20127.6" y2="44036.9" gradientUnits="userSpaceOnUse">
<stop stop-color="#40447E"/>
<stop offset="1" stop-color="#3C3B6B"/>
</linearGradient>
<linearGradient id="paint29_linear" x1="77506.2" y1="201226" x2="91567.6" y2="201226" gradientUnits="userSpaceOnUse">
<stop stop-color="#40447E"/>
<stop offset="1" stop-color="#3C3B6B"/>
</linearGradient>
<linearGradient id="paint30_linear" x1="3678.26" y1="-45159.4" x2="3410.34" y2="-45883.6" gradientUnits="userSpaceOnUse">
<stop stop-color="#40447E"/>
<stop offset="1" stop-color="#3C3B6B"/>
</linearGradient>
<linearGradient id="paint31_linear" x1="58960.8" y1="-148580" x2="55695" y2="-157408" gradientUnits="userSpaceOnUse">
<stop stop-color="#40447E"/>
<stop offset="1" stop-color="#3C3B6B"/>
</linearGradient>
<linearGradient id="paint32_linear" x1="84342.4" y1="-45082.8" x2="83896" y2="-46289.7" gradientUnits="userSpaceOnUse">
<stop stop-color="#AA80F9"/>
<stop offset="1" stop-color="#6165D7"/>
</linearGradient>
<linearGradient id="paint33_linear" x1="68025.8" y1="-61590.5" x2="66866.4" y2="-64724.4" gradientUnits="userSpaceOnUse">
<stop stop-color="#AA80F9"/>
<stop offset="1" stop-color="#6165D7"/>
</linearGradient>
<linearGradient id="paint34_linear" x1="18709.4" y1="7070.14" x2="19829.3" y2="7070.14" gradientUnits="userSpaceOnUse">
<stop stop-color="#40447E"/>
<stop offset="1" stop-color="#3C3B6B"/>
</linearGradient>
<linearGradient id="paint35_linear" x1="2347.12" y1="1029.37" x2="2360.82" y2="1029.37" gradientUnits="userSpaceOnUse">
<stop stop-color="#40447E"/>
<stop offset="1" stop-color="#3C3B6B"/>
</linearGradient>
<linearGradient id="paint36_linear" x1="49595.4" y1="26067.4" x2="53865.4" y2="26067.4" gradientUnits="userSpaceOnUse">
<stop stop-color="#40447E"/>
<stop offset="1" stop-color="#3C3B6B"/>
</linearGradient>
<linearGradient id="paint37_linear" x1="33044.3" y1="9293.75" x2="35184.5" y2="9293.75" gradientUnits="userSpaceOnUse">
<stop stop-color="#40447E"/>
<stop offset="1" stop-color="#3C3B6B"/>
</linearGradient>
<linearGradient id="paint38_linear" x1="86841.4" y1="12915.2" x2="118909" y2="12915.2" gradientUnits="userSpaceOnUse">
<stop stop-color="#40447E"/>
<stop offset="1" stop-color="#3C3B6B"/>
</linearGradient>
<linearGradient id="paint39_linear" x1="9970.93" y1="7904.79" x2="10193.6" y2="7904.79" gradientUnits="userSpaceOnUse">
<stop stop-color="#40447E"/>
<stop offset="1" stop-color="#3C3B6B"/>
</linearGradient>
<linearGradient id="paint40_linear" x1="91849.9" y1="84398.5" x2="6130.64" y2="367964" gradientUnits="userSpaceOnUse">
<stop stop-color="#FFC444"/>
<stop offset="1" stop-color="#F36F56"/>
</linearGradient>
<linearGradient id="paint41_linear" x1="61759" y1="93788.1" x2="44262" y2="170283" gradientUnits="userSpaceOnUse">
<stop stop-color="#AA80F9"/>
<stop offset="1" stop-color="#6165D7"/>
</linearGradient>
<linearGradient id="paint42_linear" x1="28472.1" y1="6813.95" x2="82809.2" y2="105313" gradientUnits="userSpaceOnUse">
<stop stop-color="#AA80F9"/>
<stop offset="1" stop-color="#6165D7"/>
</linearGradient>
<linearGradient id="paint43_linear" x1="92681.4" y1="-1959.02" x2="83974" y2="5413.2" gradientUnits="userSpaceOnUse">
<stop stop-color="#AA80F9"/>
<stop offset="1" stop-color="#6165D7"/>
</linearGradient>
<linearGradient id="paint44_linear" x1="65835.9" y1="-3151.92" x2="59313.6" y2="2155.65" gradientUnits="userSpaceOnUse">
<stop stop-color="#AA80F9"/>
<stop offset="1" stop-color="#6165D7"/>
</linearGradient>
<linearGradient id="paint45_linear" x1="39337.8" y1="-4028.71" x2="34973.3" y2="-831.507" gradientUnits="userSpaceOnUse">
<stop stop-color="#AA80F9"/>
<stop offset="1" stop-color="#6165D7"/>
</linearGradient>
<clipPath id="clip0">
<rect width="264" height="263" fill="white"/>
</clipPath>
</defs>
</svg>
