<svg width="703" height="123" viewBox="0 0 703 123" fill="none" xmlns="http://www.w3.org/2000/svg">
<g clip-path="url(#clip0)">
<path d="M1.98645 85.217C1.42121 85.1331 0.918437 84.9362 0.558379 84.6579C0.198321 84.3796 0.00173511 84.0359 0 83.6816L0 39.3184C0.000777723 38.9639 0.197008 38.6199 0.557218 38.3415C0.917428 38.0631 1.42075 37.8664 1.98645 37.783C2.24554 37.7563 2.51125 37.7663 2.76303 37.8121C3.0148 37.8579 3.24589 37.9384 3.43844 38.0473C3.63098 38.1562 3.77982 38.2906 3.87344 38.4401C3.96706 38.5897 4.00295 38.7503 3.97835 38.9096V84.0804C3.97835 84.8315 3.08336 85.3366 1.98645 85.217Z" fill="#434343"/>
<path d="M18.9832 104.423C18.4031 104.29 17.9022 104.053 17.5459 103.744C17.1896 103.436 16.9944 103.069 16.9858 102.691V20.3156C16.9922 19.937 17.1864 19.5684 17.5428 19.2583C17.8993 18.9481 18.4014 18.7108 18.9832 18.5775C20.0747 18.3814 20.9751 18.8533 20.9751 19.6309V103.356C20.9751 104.147 20.0856 104.619 18.9832 104.423Z" fill="#434343"/>
<path d="M35.9725 74.2101C34.881 74.1569 33.9751 73.4657 33.9751 72.6714V50.3286C33.9751 49.5343 34.8701 48.8431 35.9725 48.7899C37.0748 48.7367 37.9698 49.3515 37.9698 50.1591V72.8409C37.9698 73.6485 37.0748 74.2633 35.9725 74.2101Z" fill="#434343"/>
<path d="M52.9727 75.2968C51.8812 75.2437 50.9698 74.5291 50.9698 73.7016V49.2984C50.9698 48.4709 51.8648 47.7563 52.9727 47.7032C54.0805 47.65 54.9809 48.2881 54.9809 49.1322V73.8678C54.9809 74.7086 54.0805 75.35 52.9727 75.2968Z" fill="#434343"/>
<path d="M69.9892 82.4586C68.8978 82.3855 67.981 81.6311 67.981 80.7704V42.2197C67.981 41.3623 68.876 40.6079 69.9892 40.5347C71.1025 40.4616 71.9975 41.1097 71.9975 41.9804V81.013C71.9975 81.8837 71.0971 82.5317 69.9892 82.4586Z" fill="#434343"/>
<path d="M87.0113 86.8953C85.9198 86.8155 84.9976 86.0312 84.9976 85.1439V37.8561C84.9976 36.9688 85.898 36.1945 87.0113 36.1047C88.1246 36.015 89.025 36.6863 89.025 37.5869V85.4097C89.025 86.3104 88.1246 86.975 87.0113 86.8953Z" fill="#434343"/>
<path d="M104.044 77.3407C102.953 77.2942 102.025 76.5165 102.025 75.6026V47.3974C102.025 46.4835 102.925 45.7059 104.044 45.6593C105.163 45.6128 106.063 46.324 106.063 47.2512V75.7455C106.063 76.6727 105.157 77.3839 104.044 77.3407Z" fill="#434343"/>
<path d="M121.083 95.629C119.991 95.5393 119.063 94.7051 119.063 93.7679V29.2454C119.063 28.3082 119.969 27.474 121.083 27.3843C122.196 27.2946 123.107 27.9958 123.107 28.9429V94.0803C123.107 95.0175 122.201 95.7121 121.083 95.629Z" fill="#434343"/>
<path d="M138.132 96.4565C137.013 96.3734 136.107 95.526 136.107 94.5656V28.4311C136.107 27.4707 137.013 26.6233 138.132 26.5402C139.251 26.4571 140.135 27.1849 140.135 28.1553V94.8447C140.135 95.8151 139.251 96.5363 138.132 96.4565Z" fill="#434343"/>
<path d="M155.165 77.8292C154.073 77.796 153.135 76.9685 153.135 75.9848V47.0119C153.135 46.0149 154.046 45.204 155.165 45.1675C156.283 45.1309 157.195 45.9119 157.195 46.9023V76.1044C157.195 77.1014 156.289 77.8658 155.165 77.8292Z" fill="#434343"/>
<path d="M172.23 76.0313C171.106 76.0047 170.195 75.1672 170.195 74.1669V48.8331C170.195 47.8361 171.106 46.9953 172.23 46.9654C173.355 46.9355 174.26 47.7364 174.26 48.7467V74.25C174.26 75.2636 173.349 76.0612 172.23 76.0313Z" fill="#434343"/>
<path d="M189.296 79.8797C188.172 79.8465 187.26 78.9957 187.26 77.9721V45.0246C187.26 44.0043 188.172 43.1502 189.296 43.1203C190.42 43.0904 191.332 43.8979 191.332 44.9282V78.0718C191.332 79.0954 190.42 79.9096 189.296 79.8797Z" fill="#434343"/>
<path d="M206.367 78.7033C205.243 78.68 204.332 77.8159 204.332 76.779V46.221C204.332 45.1841 205.243 44.32 206.367 44.2934C207.491 44.2668 208.408 45.0943 208.408 46.1379V76.8588C208.408 77.9057 207.497 78.7298 206.367 78.7033Z" fill="#434343"/>
<path d="M223.449 76.7192C222.32 76.6993 221.408 75.8285 221.408 74.7784V48.2216C221.408 47.1681 222.32 46.3007 223.449 46.2808C224.579 46.2608 225.49 47.1016 225.49 48.1585V74.8382C225.49 75.8983 224.573 76.7391 223.449 76.7192Z" fill="#434343"/>
<path d="M240.537 75.3999C239.407 75.3999 238.49 74.5092 238.49 73.4457V49.5543C238.49 48.4908 239.407 47.6134 240.537 47.5968C241.666 47.5802 242.578 48.4376 242.578 49.5077V73.4923C242.578 74.5624 241.661 75.4165 240.537 75.3999Z" fill="#434343"/>
<path d="M257.619 114.067C256.489 114.02 255.578 113.106 255.578 112.03V10.967C255.578 9.89356 256.495 8.973 257.619 8.9298C258.743 8.88659 259.665 9.72075 259.665 10.8008V112.199C259.654 113.279 258.738 114.117 257.619 114.067Z" fill="#434343"/>
<path d="M274.712 100.032C273.582 100.006 272.665 99.1019 272.665 98.0151V24.9915C272.665 23.9047 273.582 22.9975 274.712 22.9709C275.841 22.9443 276.758 23.805 276.758 24.8918V98.1082C276.758 99.1949 275.841 100.056 274.712 100.032Z" fill="#434343"/>
<path d="M291.805 84.1768C290.675 84.1768 289.758 83.2662 289.758 82.1828V40.8239C289.758 39.7305 290.675 38.8299 291.805 38.8299C292.934 38.8299 293.851 39.6973 293.851 40.7906V82.2193C293.851 83.3127 292.934 84.1901 291.805 84.1768Z" fill="#434343"/>
<path d="M308.903 75.0443C307.768 75.0443 306.851 74.1436 306.851 73.0503V49.9531C306.851 48.8564 307.768 47.9591 308.903 47.9591C310.038 47.9591 310.949 48.8398 310.949 49.9531V73.0802C310.944 74.1636 310.027 75.0509 308.903 75.0443Z" fill="#434343"/>
<path d="M326.001 82.0432C324.872 82.0432 323.949 81.1393 323.949 80.0492V42.9608C323.949 41.8607 324.872 40.9668 326.001 40.9668C327.131 40.9668 328.048 41.8508 328.048 42.9608V80.0525C328.048 81.1559 327.131 82.0465 326.001 82.0432Z" fill="#434343"/>
<path d="M343.094 82.8508C341.965 82.8508 341.048 81.9502 341.048 80.8568V42.1532C341.048 41.0498 341.965 40.1592 343.094 40.1592C344.224 40.1592 345.146 41.0532 345.146 42.1532V80.8535C345.146 81.9568 344.229 82.8508 343.094 82.8508Z" fill="#434343"/>
<path d="M360.193 97.1677C359.063 97.1677 358.146 96.2771 358.146 95.1737V27.8263C358.146 26.7229 359.063 25.8323 360.193 25.8323C361.322 25.8323 362.245 26.7329 362.245 27.8263V95.1637C362.245 96.2671 361.328 97.1644 360.193 97.1677Z" fill="#434343"/>
<path d="M377.291 123C376.161 123 375.245 122.129 375.245 121.029V1.97045C375.245 0.867104 376.161 -0.0235502 377.291 -0.000286847C378.421 0.0229765 379.338 0.923601 379.338 2.02363V120.969C379.338 122.076 378.421 122.983 377.291 123Z" fill="#434343"/>
<path d="M394.384 78.896C393.254 78.896 392.338 78.0153 392.338 76.902V46.0814C392.338 44.9814 393.254 44.0874 394.384 44.104C395.514 44.1206 396.431 45.008 396.431 46.098V76.8854C396.431 77.9921 395.514 78.8894 394.384 78.896Z" fill="#434343"/>
<path d="M411.477 79.5773C410.347 79.5773 409.431 78.7099 409.431 77.6132V45.3768C409.431 44.2835 410.347 43.4028 411.477 43.4127C412.607 43.4227 413.523 44.32 413.523 45.4067V77.57C413.523 78.6734 412.607 79.5673 411.477 79.5773Z" fill="#434343"/>
<path d="M428.57 87.8391C427.44 87.859 426.523 86.9916 426.523 85.9049V37.0951C426.523 36.005 427.44 35.1376 428.57 35.1576C429.7 35.1775 430.616 36.0748 430.616 37.1516V85.8385C430.616 86.9252 429.7 87.8192 428.57 87.8391Z" fill="#434343"/>
<path d="M445.657 92.1594C444.533 92.1893 443.616 91.3352 443.616 90.2552V32.7614C443.616 31.6814 444.533 30.8273 445.657 30.8572C446.782 30.8871 447.704 31.7811 447.704 32.8512V90.1588C447.704 91.2356 446.787 92.1295 445.657 92.1594Z" fill="#434343"/>
<path d="M462.745 79.8897C461.615 79.9096 460.704 79.0589 460.704 77.9887V45.0113C460.704 43.9412 461.615 43.0904 462.745 43.1103C463.875 43.1303 464.786 44.011 464.786 45.0744V77.9256C464.786 78.9891 463.875 79.8698 462.745 79.8897Z" fill="#434343"/>
<path d="M479.827 99.6403C478.697 99.6901 477.786 98.8726 477.786 97.8124V25.1842C477.786 24.1274 478.697 23.3099 479.827 23.3564C480.957 23.4029 481.868 24.3002 481.868 25.3504V97.6462C481.868 98.7031 480.951 99.5937 479.827 99.6403Z" fill="#434343"/>
<path d="M496.909 99.1318C495.779 99.1883 494.868 98.3841 494.868 97.3405V25.6595C494.868 24.6126 495.779 23.8117 496.909 23.8682C498.039 23.9247 498.944 24.812 498.944 25.8622V97.1511C498.944 98.188 498.033 99.0753 496.909 99.1318Z" fill="#434343"/>
<path d="M513.98 78.4307C512.856 78.4573 511.944 77.6464 511.944 76.6195V46.3672C511.944 45.3403 512.856 44.5294 513.98 44.556C515.104 44.5826 516.016 45.4367 516.016 46.4569V76.5398C516.016 77.5634 515.104 78.4307 513.98 78.4307Z" fill="#434343"/>
<path d="M531.046 76.0313C529.927 76.0612 529.016 75.2636 529.016 74.25V48.7467C529.016 47.7497 529.922 46.9388 531.046 46.9654C532.17 46.992 533.081 47.8295 533.081 48.8331V74.1669C533.081 75.1672 532.17 76.0047 531.046 76.0313Z" fill="#434343"/>
<path d="M548.111 79.2151C546.987 79.2549 546.081 78.4773 546.081 77.4869V45.5297C546.081 44.5327 546.987 43.7617 548.111 43.8016C549.236 43.8415 550.142 44.6656 550.142 45.6493V77.3673C550.147 78.351 549.23 79.1785 548.111 79.2151Z" fill="#434343"/>
<path d="M565.166 77.4803C564.075 77.5201 563.136 76.7624 563.142 75.7887V47.208C563.142 46.2376 564.048 45.4799 565.166 45.5164C566.285 45.553 567.191 46.3672 567.191 47.3276V75.6691C567.191 76.6328 566.285 77.4337 565.166 77.4803Z" fill="#434343"/>
<path d="M582.216 75.1074C581.124 75.144 580.191 74.4029 580.191 73.4457V49.5177C580.191 48.5706 581.097 47.8295 582.216 47.856C583.334 47.8826 584.235 48.6802 584.235 49.6207V73.3261C584.235 74.2899 583.329 75.0808 582.216 75.1074Z" fill="#434343"/>
<path d="M599.254 73.4723C598.162 73.5089 597.235 72.7844 597.235 71.8605V51.1395C597.235 50.2123 598.141 49.4778 599.254 49.5277C600.367 49.5775 601.273 50.3319 601.273 51.2425V71.7542C601.273 72.6681 600.373 73.4457 599.254 73.4723Z" fill="#434343"/>
<path d="M616.287 105.044C615.195 105.18 614.273 104.562 614.273 103.662V19.3352C614.273 18.4379 615.174 17.8197 616.287 17.956C617.4 18.0922 618.301 18.9231 618.301 19.8104V103.19C618.301 104.077 617.4 104.908 616.287 105.044Z" fill="#434343"/>
<path d="M633.309 92.1561C632.218 92.2591 631.301 91.6377 631.301 90.767V32.2364C631.301 31.3656 632.201 30.7442 633.309 30.8505C634.417 30.9569 635.317 31.7412 635.317 32.5986V90.3947C635.317 91.2655 634.417 92.0564 633.309 92.1561Z" fill="#434343"/>
<path d="M650.32 78.8063C649.229 78.8728 648.317 78.2446 648.317 77.4038V45.5962C648.317 44.7554 649.218 44.1273 650.32 44.1937C651.423 44.2602 652.328 44.9847 652.328 45.8122V77.1878C652.328 78.0153 651.428 78.7398 650.32 78.8063Z" fill="#434343"/>
<path d="M667.331 71.3952C666.24 71.4384 665.328 70.8136 665.328 70.0061V52.9939C665.328 52.183 666.229 51.5616 667.331 51.6048C668.434 51.648 669.329 52.3259 669.329 53.1202V69.8798C669.329 70.6741 668.434 71.352 667.331 71.3952Z" fill="#434343"/>
<path d="M684.326 75.8385C683.235 75.9017 682.329 75.3267 682.329 74.5491V48.4509C682.329 47.6733 683.224 47.095 684.326 47.1615C684.9 47.2237 685.417 47.4099 685.783 47.6859C686.149 47.9619 686.339 48.3091 686.318 48.6636V74.3364C686.339 74.6909 686.149 75.0381 685.783 75.3141C685.417 75.5901 684.9 75.7763 684.326 75.8385Z" fill="#434343"/>
<path d="M701.317 75.6956C701.05 75.7081 700.782 75.6853 700.531 75.6287C700.28 75.5722 700.052 75.4832 699.863 75.368C699.674 75.2528 699.528 75.114 699.435 74.9612C699.342 74.8083 699.305 74.6451 699.325 74.4826V48.5207C699.305 48.3582 699.342 48.195 699.435 48.0422C699.528 47.8893 699.674 47.7506 699.863 47.6353C700.052 47.5201 700.28 47.4312 700.531 47.3746C700.782 47.3181 701.05 47.2952 701.317 47.3077C701.877 47.3641 702.386 47.541 702.75 47.8062C703.115 48.0715 703.311 48.4075 703.303 48.7533V74.25C703.31 74.5956 703.113 74.9313 702.749 75.1964C702.385 75.4615 701.877 75.6386 701.317 75.6956Z" fill="#434343"/>
</g>
<defs>
<clipPath id="clip0">
<rect width="703" height="123" fill="white"/>
</clipPath>
</defs>
</svg>
